<?xml version="1.0" encoding="UTF-8"?>
<svg width="22px" height="25px" viewBox="0 0 22 25" version="1.1" xmlns="http://www.w3.org/2000/svg" xmlns:xlink="http://www.w3.org/1999/xlink">
    <!-- Generator: sketchtool 42 (36781) - http://www.bohemiancoding.com/sketch -->
    <title>A65BCF10-F7A6-4C0E-A611-448E71D82A19</title>
    <desc>Created with sketchtool.</desc>
    <defs></defs>
    <g id="Page-1" stroke="none" stroke-width="1" fill="none" fill-rule="evenodd">
        <g id="ursus-header" transform="translate(-504.000000, -75.000000)" fill-rule="nonzero">
            <g id="1" transform="translate(504.000000, 75.000000)">
                <path d="M1.56333503,0 L14.623998,0 L21.546714,6.99282258 L21.546714,23.3820968 C21.546714,24.2433065 20.8580926,24.9408871 20.0095432,24.9408871 L1.56333503,24.9408871 C0.714785596,24.9408871 0.0261642703,24.2433065 0.0261642703,23.3820968 L0.0261642703,1.55879032 C0.0261642703,0.697580645 0.714865123,0 1.56333503,0 Z" id="Shape" fill="#E2574C"></path>
                <path d="M21.524526,7.01459677 L16.1666561,7.01459677 C15.3181066,7.01459677 14.6294853,6.31629032 14.6294853,5.45580645 L14.6294853,0.0155645161 L21.524526,7.01459677 Z" id="Shape" fill="#B53629"></path>
                <path d="M15.7807927,11.8180645 C16.0383,11.8180645 16.1643498,11.5904839 16.1643498,11.3699194 C16.1643498,11.1415323 16.0328922,10.9209677 15.7807927,10.9209677 L14.3143212,10.9209677 C14.0276276,10.9209677 13.867779,11.1617742 13.867779,11.4275806 L13.867779,15.0821774 C13.867779,15.4079839 14.0506903,15.5887903 14.2981772,15.5887903 C14.5441532,15.5887903 14.7278598,15.4079839 14.7278598,15.0821774 L14.7278598,14.0791129 L15.6148206,14.0791129 C15.8899828,14.0791129 16.0275639,13.8507258 16.0275639,13.6239516 C16.0275639,13.4018548 15.8899828,13.1812097 15.6148206,13.1812097 L14.7278598,13.1812097 L14.7278598,11.8180645 C14.7278598,11.8180645 15.7807927,11.8180645 15.7807927,11.8180645 Z M10.8241347,10.9209677 L9.75116109,10.9209677 C9.45985494,10.9209677 9.25308563,11.123629 9.25308563,11.4244355 L9.25308563,15.0853226 C9.25308563,15.458629 9.55051533,15.5755645 9.76340819,15.5755645 L10.8894261,15.5755645 C12.2221339,15.5755645 13.1021758,14.6862903 13.1021758,13.3137097 C13.1014601,11.8625 12.2729514,10.9209677 10.8241347,10.9209677 Z M10.875668,14.6730645 L10.2215613,14.6730645 L10.2215613,11.8235484 L10.8110924,11.8235484 C11.703461,11.8235484 12.0915511,12.4307258 12.0915511,13.2685484 C12.0915511,14.0526613 11.7103003,14.6730645 10.875668,14.6730645 Z M6.94506299,10.9209677 L5.88210968,10.9209677 C5.58157845,10.9209677 5.41401578,11.1220161 5.41401578,11.4275806 L5.41401578,15.0821774 C5.41401578,15.4079839 5.60615218,15.5887903 5.86437524,15.5887903 C6.12259829,15.5887903 6.3147347,15.4079839 6.3147347,15.0821774 L6.3147347,14.0151613 L6.98108856,14.0151613 C7.80347372,14.0151613 8.48215422,13.4243548 8.48215422,12.4742742 C8.48223374,11.5445161 7.82741125,10.9209677 6.94506299,10.9209677 Z M6.92740807,13.1579032 L6.31481423,13.1579032 L6.31481423,11.7791129 L6.92740807,11.7791129 C7.30555732,11.7791129 7.54612546,12.0783871 7.54612546,12.468871 C7.54533019,12.858629 7.30555732,13.1579032 6.92740807,13.1579032 Z" id="Shape" fill="#FFFFFF"></path>
            </g>
        </g>
    </g>
</svg>