<?xml version="1.0" encoding="utf-8"?>
<!-- Generator: Adobe Illustrator 16.0.0, SVG Export Plug-In . SVG Version: 6.00 Build 0)  -->
<!DOCTYPE svg PUBLIC "-//W3C//DTD SVG 1.1//EN" "http://www.w3.org/Graphics/SVG/1.1/DTD/svg11.dtd">
<svg version="1.1" id="Слой_1" xmlns="http://www.w3.org/2000/svg" xmlns:xlink="http://www.w3.org/1999/xlink" x="0px" y="0px"
	 width="29px" height="29px" viewBox="-8 -3.5 29 29" enable-background="new -8 -3.5 29 29" xml:space="preserve">
<circle fill="none" stroke="#000000" stroke-width="1.008" stroke-miterlimit="10" cx="6.5" cy="11" r="14"/>
<g>
	<path d="M6.646,12.641c0,0.497-0.448,0.901-1,0.901l0,0c-0.552,0-1-0.404-1-0.901V4.068c0-0.498,0.448-0.901,1-0.901l0,0
		c0.552,0,1,0.403,1,0.901V12.641z"/>
	<path d="M5.547,13.542c-0.497,0-0.901-0.448-0.901-1l0,0c0-0.552,0.404-1,0.901-1h8.572c0.498,0,0.901,0.448,0.901,1l0,0
		c0,0.552-0.403,1-0.901,1H5.547z"/>
</g>
</svg>
