<?xml version="1.0" encoding="utf-8"?>
<!-- Generator: Adobe Illustrator 16.0.0, SVG Export Plug-In . SVG Version: 6.00 Build 0)  -->
<!DOCTYPE svg PUBLIC "-//W3C//DTD SVG 1.1//EN" "http://www.w3.org/Graphics/SVG/1.1/DTD/svg11.dtd">
<svg version="1.1" id="Слой_1" xmlns="http://www.w3.org/2000/svg" xmlns:xlink="http://www.w3.org/1999/xlink" x="0px" y="0px"
	 width="29.009px" height="29.004px" viewBox="240.996 240.998 29.009 29.004"
	 enable-background="new 240.996 240.998 29.009 29.004" xml:space="preserve">
<circle fill="none" stroke="#000000" stroke-width="1.008" stroke-miterlimit="10" cx="255.501" cy="255.5" r="14"/>
<path fill-rule="evenodd" clip-rule="evenodd" d="M249.308,252.893c0.031-0.306,0.036-0.616,0.098-0.915
	c0.091-0.44,0.256-0.856,0.479-1.253c0.327-0.581,0.812-1.009,1.32-1.417c0.161-0.13,0.326-0.262,0.508-0.357
	c0.304-0.161,0.614-0.104,0.861,0.112c0.249,0.219,0.479,0.469,0.678,0.734c0.224,0.298,0.41,0.625,0.604,0.945
	c0.264,0.437,0.447,0.9,0.385,1.427c-0.034,0.288-0.177,0.527-0.39,0.715c-0.278,0.245-0.576,0.465-0.862,0.702
	c-0.463,0.383-0.52,0.77-0.334,1.315c0.261,0.774,0.757,1.399,1.292,1.996c0.326,0.365,0.675,0.712,1.028,1.052
	c0.297,0.284,0.644,0.508,1.027,0.665c0.395,0.16,0.838,0.044,1.16-0.273c0.273-0.268,0.562-0.523,0.859-0.765
	c0.494-0.398,1.014-0.305,1.523-0.031c0.479,0.256,0.869,0.628,1.271,0.986c0.285,0.258,0.57,0.514,0.752,0.865
	c0.248,0.479,0.115,0.817-0.236,1.156c-0.318,0.308-0.666,0.589-1.021,0.855c-0.318,0.238-0.676,0.403-1.062,0.525
	c-0.545,0.175-1.094,0.241-1.656,0.19c-0.328-0.03-0.656-0.11-0.973-0.203c-0.365-0.107-0.734-0.22-1.069-0.392
	c-0.421-0.219-0.833-0.471-1.209-0.76c-0.484-0.373-0.942-0.783-1.387-1.203c-0.664-0.626-1.249-1.325-1.791-2.059
	c-0.302-0.408-0.588-0.832-0.841-1.273c-0.298-0.52-0.538-1.071-0.722-1.645C249.423,254.037,249.327,253.473,249.308,252.893z"/>
</svg>
