<?xml version="1.0" encoding="iso-8859-1"?>
<!-- Generator: Adobe Illustrator 19.0.0, SVG Export Plug-In . SVG Version: 6.00 Build 0)  -->
<svg version="1.1" id="Layer_1" xmlns="http://www.w3.org/2000/svg" xmlns:xlink="http://www.w3.org/1999/xlink" x="0px" y="0px"
	 viewBox="0 0 512 512" style="enable-background:new 0 0 512 512;" xml:space="preserve">
<path d="M94.68,0c-17.6,0-32,14.4-32,32v448c0,17.6,14.4,32,32,32h322.64c17.6,0,32-14.4,32-32V111.216L338.152,0H94.68z"/>
<polygon style="fill:#999999;" points="338.104,111.2 449.304,111.2 338.152,0 338.104,0 "/>
<g style="opacity:0.25;">
	<polygon style="fill:#FFFFFF;" points="62.68,388.576 62.68,310.56 152.792,310.56 	"/>
</g>
<g>
	<rect x="62.68" y="302.56" style="fill:#848484;" width="386.56" height="8"/>
	<rect x="62.68" y="435.52" style="fill:#848484;" width="386.56" height="8"/>
</g>
<g>
	<path style="fill:#FFFFFF;" d="M197.816,348.064v61.968h-14.16v-61.968h-21.552v-12.688h58.016v12.688H197.816z"/>
	<path style="fill:#FFFFFF;" d="M290.2,335.376l-22.416,36.16l23.888,38.496h-16.624l-10.72-17.936
		c-1.648-2.768-3.2-5.584-4.704-8.416l-1.536-2.96l-1.584-2.912h-0.224l-1.6,2.976c-1.888,3.568-4.048,7.344-6.448,11.312
		l-10.768,17.936h-17.056l24.496-38.496l-22.752-36.16h16.896L249,352c1.584,2.624,3.04,5.216,4.432,7.776l1.36,2.624l1.376,2.624
		h0.224c0.608-1.168,1.072-2.048,1.36-2.624l1.376-2.576c1.152-2.272,2.624-4.848,4.368-7.76l9.952-16.688H290.2z"/>
	<path style="fill:#FFFFFF;" d="M327.608,348.064v61.968h-14.176v-61.968H291.88v-12.688h58.032v12.688H327.608z"/>
</g>
<g>
</g>
<g>
</g>
<g>
</g>
<g>
</g>
<g>
</g>
<g>
</g>
<g>
</g>
<g>
</g>
<g>
</g>
<g>
</g>
<g>
</g>
<g>
</g>
<g>
</g>
<g>
</g>
<g>
</g>
</svg>
