<?xml version="1.0" encoding="UTF-8"?>
<svg width="22px" height="25px" viewBox="0 0 22 25" version="1.1" xmlns="http://www.w3.org/2000/svg" xmlns:xlink="http://www.w3.org/1999/xlink">
    <!-- Generator: sketchtool 42 (36781) - http://www.bohemiancoding.com/sketch -->
    <title>FE3FC0CE-8332-42B5-8EF8-FACD3B2C4D82</title>
    <desc>Created with sketchtool.</desc>
    <defs></defs>
    <g id="Page-1" stroke="none" stroke-width="1" fill="none" fill-rule="evenodd">
        <g id="ursus-header" transform="translate(-657.000000, -75.000000)">
            <g id="3" transform="translate(657.000000, 75.000000)">
                <g id="Group" fill-rule="nonzero">
                    <path d="M1.56333503,0 L14.623998,0 L21.546714,6.99282258 L21.546714,23.3820968 C21.546714,24.2433065 20.8580926,24.9408871 20.0095432,24.9408871 L1.56333503,24.9408871 C0.714785596,24.9408871 0.0261642703,24.2433065 0.0261642703,23.3820968 L0.0261642703,1.55879032 C0.0261642703,0.697580645 0.714865123,0 1.56333503,0 Z" id="Shape" fill="#65A220"></path>
                    <path d="M21.524526,7.01459677 L16.1666561,7.01459677 C15.3181066,7.01459677 14.6294853,6.31629032 14.6294853,5.45580645 L14.6294853,0.0155645161 L21.524526,7.01459677 Z" id="Shape" fill="#417505"></path>
                </g>
                <path d="M4.31034483,15.5791842 L6.06917289,12.8935485 L4.47534467,10.4325935 L5.69002433,10.4325935 L6.72215098,12.0861025 L7.73321382,10.4325935 L8.93736157,10.4325935 L7.33651208,12.9321655 L9.09534014,15.5791842 L7.8420435,15.5791842 L6.70108717,13.7992923 L5.5566202,15.5791842 L4.31034483,15.5791842 Z M9.65704172,15.5791842 L9.65704172,10.4747211 L10.6961896,10.4747211 L10.6961896,14.7120574 L13.2800169,14.7120574 L13.2800169,15.5791842 L9.65704172,15.5791842 Z M13.7574632,13.9046113 L14.7685261,13.8063136 C14.8293774,14.1456766 14.9528335,14.3949292 15.1388981,14.5540788 C15.3249626,14.7132284 15.5759705,14.792802 15.8919292,14.792802 C16.2266114,14.792802 16.4787895,14.7220049 16.648471,14.5804085 C16.8181526,14.4388122 16.9029921,14.2732289 16.9029921,14.0836537 C16.9029921,13.9619511 16.867301,13.8583884 16.7959177,13.7729625 C16.7245344,13.6875367 16.5999081,13.613229 16.4220351,13.5500372 C16.3003325,13.5079094 16.0229951,13.4330166 15.5900146,13.3253566 C15.0329911,13.1872709 14.6421443,13.0175919 14.4174626,12.8163145 C14.1015039,12.5331219 13.9435269,12.1879129 13.9435269,11.7806772 C13.9435269,11.5185485 14.0178346,11.2733916 14.1664522,11.0451992 C14.3150698,10.8170068 14.5292164,10.6432321 14.8088984,10.52387 C15.0885804,10.4045078 15.426183,10.3448276 15.8217165,10.3448276 C16.4676766,10.3448276 16.9538946,10.4864218 17.2803853,10.7696144 C17.606876,11.052807 17.7783103,11.4307816 17.7946933,11.9035495 L16.7555454,11.9491877 C16.7110771,11.6847186 16.6157058,11.4945611 16.4694287,11.3787096 C16.3231515,11.262858 16.103739,11.2049331 15.8111846,11.2049331 C15.5092685,11.2049331 15.2728881,11.2669537 15.1020364,11.3909968 C14.9920359,11.4705716 14.9370365,11.5770598 14.9370365,11.7104645 C14.9370365,11.8321672 14.9885253,11.936315 15.0915045,12.022911 C15.2225688,12.1329115 15.5408632,12.2475911 16.0463972,12.3669533 C16.5519311,12.4863154 16.92581,12.6097715 17.168045,12.7373252 C17.41028,12.8648789 17.5998524,13.0392387 17.7367678,13.2604098 C17.8736833,13.4815809 17.94214,13.7548226 17.94214,14.0801431 C17.94214,14.3750379 17.860226,14.6512051 17.6963955,14.9086529 C17.5325651,15.1661007 17.3008655,15.3574284 17.0012898,15.4826417 C16.7017142,15.607855 16.3284204,15.6704607 15.8813973,15.6704607 C15.2307564,15.6704607 14.731081,15.52009 14.3823562,15.2193441 C14.0336314,14.9185982 13.8253358,14.4803583 13.7574632,13.9046113 Z" id="xls" fill="#FFFFFF"></path>
            </g>
        </g>
    </g>
</svg>