<?xml version="1.0" encoding="iso-8859-1"?>
<!-- Generator: Adobe Illustrator 19.0.0, SVG Export Plug-In . SVG Version: 6.00 Build 0)  -->
<svg version="1.1" id="Layer_1" xmlns="http://www.w3.org/2000/svg" xmlns:xlink="http://www.w3.org/1999/xlink" x="0px" y="0px"
	 viewBox="0 0 512 512" style="enable-background:new 0 0 512 512;" xml:space="preserve">
<path d="M94.68,0c-17.6,0-32,14.4-32,32v448c0,17.6,14.4,32,32,32h322.64c17.6,0,32-14.4,32-32V111.216L338.152,0H94.68z"/>
<polygon style="fill:#999999;" points="338.104,111.2 449.304,111.2 338.152,0 338.104,0 "/>
<g style="opacity:0.25;">
	<polygon style="fill:#FFFFFF;" points="62.68,388.576 62.68,310.56 152.792,310.56 	"/>
</g>
<g>
	<rect x="62.68" y="302.56" style="fill:#848484;" width="386.56" height="8"/>
	<rect x="62.68" y="435.52" style="fill:#848484;" width="386.56" height="8"/>
</g>
<g>
	<path style="fill:#FFFFFF;" d="M237.384,335.44v11.872l-41.232,50.416v0.432h41.728v11.92h-59.664v-12.096l40.912-50.192v-0.432
		h-39.104v-11.936h57.36V335.44z"/>
	<path style="fill:#FFFFFF;" d="M261.064,335.44v74.656h-14.16V335.44H261.064z"/>
	<path style="fill:#FFFFFF;" d="M274.296,410.096V335.44h30.08h3.712c10.096,0,16.912,1.76,20.416,5.28s5.28,10.32,5.28,20.368
		c0,9.984-1.68,16.624-5.024,19.904c-3.36,3.28-10.144,4.928-20.336,4.928l-3.28,0.048h-16.688v24.128H274.296z M288.456,374.064
		H304.6c6.4,0,10.48-0.752,12.224-2.224c1.728-1.488,2.592-4.976,2.592-10.464c0-6.32-0.72-10.224-2.16-11.728
		s-5.184-2.272-11.232-2.272h-17.568L288.456,374.064L288.456,374.064z"/>
</g>
<g>
</g>
<g>
</g>
<g>
</g>
<g>
</g>
<g>
</g>
<g>
</g>
<g>
</g>
<g>
</g>
<g>
</g>
<g>
</g>
<g>
</g>
<g>
</g>
<g>
</g>
<g>
</g>
<g>
</g>
</svg>
