<?xml version="1.0" encoding="UTF-8"?>
<svg width="46px" height="48px" viewBox="0 0 46 48" version="1.1" xmlns="http://www.w3.org/2000/svg" xmlns:xlink="http://www.w3.org/1999/xlink">
    <!-- Generator: Sketch 59.1 (86144) - https://sketch.com -->
    <title>Svg/icon/1</title>
    <desc>Created with Sketch.</desc>
    <g id="Size" stroke="none" stroke-width="1" fill="none" fill-rule="evenodd">
        <g id="1366/Size" transform="translate(-364.000000, -600.000000)" fill="#848483">
            <g id="Atom/Icons/Other/32/working-clothes" transform="translate(363.000000, 600.000000)">
                <path d="M11.0767608,7.98301205 L19.2342299,3.11283023 C20.1853571,4.01124478 21.3313935,4.58848114 22.5331389,4.84452478 L22.5331389,44.1688884 L15.2602662,44.1688884 L15.2602662,18.714343 L12.4464044,18.1965248 L7.1185644,32.1821248 L4.4097644,31.3157975 L8.92723349,15.5057611 L12.4239753,16.5048884 C12.6134735,16.5589975 12.8168335,16.5339793 12.9875099,16.4353611 C13.1581717,16.336743 13.2815317,16.1731066 13.329328,15.9819793 L14.0566008,13.0728884 C14.151728,12.6923648 13.9279753,12.3049611 13.5508408,12.1972084 L10.1502444,11.2256011 L11.0767608,7.98301205 Z M9.75062258,12.6241757 L9.32685531,14.1072302 L12.1005717,14.8997975 L12.4748699,13.402532 L9.75062258,12.6241757 Z M23.9875389,44.1688884 L32.7148117,44.1688884 L32.7148117,18.714343 L35.5361935,18.2171793 L40.8233208,32.7568157 L43.7780844,31.4554339 L39.1434662,15.6341975 L36.0963389,16.5048884 C35.9068117,16.5589975 35.7034662,16.5339793 35.5327026,16.4353611 C35.3620844,16.336743 35.2387389,16.1731066 35.1908844,15.9819793 L34.4636117,13.0728884 C34.3684844,12.6923648 34.5923389,12.3049611 34.9693571,12.1972084 L37.8919753,11.3621684 L36.9030299,7.98586296 L28.7407026,3.11283023 C27.4105208,4.36933932 25.6989571,4.99758659 23.9875389,4.99760114 L23.9875389,12.8963066 L30.532848,12.8963066 C30.934448,12.8963066 31.2601208,13.2219211 31.2601208,13.6235793 C31.2601208,14.0252375 30.934448,14.350852 30.532848,14.350852 L23.9875389,14.350852 L23.9875389,44.1688884 Z M40.8058662,10.9609175 L39.3740117,6.07300478 L29.7087026,0.302566957 C28.8239026,-0.225669698 27.6881935,-0.0481355886 27.0068844,0.724933502 C25.4044117,2.54304114 22.5705208,2.54304114 20.968048,0.724933502 C20.2867389,-0.0481341341 19.1510299,-0.22567057 18.2663753,0.302566957 L8.59617895,6.07587023 L1.61261676,30.5166702 C1.18090767,32.0275066 2.02703276,33.6081611 3.52371349,34.0867066 L6.23251349,34.9528884 C7.70419349,35.4235793 9.28702986,34.661543 9.83706622,33.2176157 L12.3511171,26.618343 L12.3511171,44.1688884 C12.3511171,45.7754339 13.6535462,47.0779793 15.2602662,47.0779793 L32.7148117,47.0779793 C34.3213571,47.0779793 35.6239026,45.7754339 35.6239026,44.1688884 L35.6239026,26.9704884 L38.0893571,33.750852 C38.6643389,35.331943 40.4563389,36.0971793 41.9959753,35.4190702 L44.9505935,34.1176884 C46.2877571,33.528743 46.9805571,32.0395793 46.5697935,30.637543 L40.9791026,11.5525102 C40.9946662,11.4519139 40.9892844,11.3464448 40.9594662,11.2421539 C40.9286299,11.1345611 40.875248,11.0395793 40.8058662,10.9609175 Z M38.3009935,12.7580957 L36.0454299,13.402532 L36.4196844,14.8997975 L38.7345935,14.2383284 L38.3009935,12.7580957 Z" id="Shape"></path>
            </g>
        </g>
    </g>
</svg>