<?xml version="1.0" encoding="UTF-8"?>
<svg width="30px" height="48px" viewBox="0 0 30 48" version="1.1" xmlns="http://www.w3.org/2000/svg" xmlns:xlink="http://www.w3.org/1999/xlink">
    <!-- Generator: Sketch 59.1 (86144) - https://sketch.com -->
    <title>Svg/icon/2</title>
    <desc>Created with Sketch.</desc>
    <g id="Size" stroke="none" stroke-width="1" fill="none" fill-rule="evenodd">
        <g id="1366/Size" transform="translate(-373.000000, -1048.000000)" fill="#848483">
            <g id="Atom/Icons/Other/32/Services" transform="translate(363.000000, 1048.000000)">
                <g id="Services" transform="translate(9.000000, 0.000000)">
                    <path d="M1.770405,4.965675 C0.085605,3.023205 1.46538,0 4.03671,0 L8.8143,0 C10.3158,0 11.586,1.1100735 11.78715,2.598045 L12.2922,6.33333 L15.75,7.551195 L19.20795,6.33333 L19.713,2.598045 C19.91415,1.1100735 21.18435,0 22.68585,0 L27.06105,0 C29.5104,0 30.92745,2.77659 29.49045,4.760085 L27.5712,7.409295 L24.52725,18.5184 L27.6345,32.4717 C27.6693,32.628 27.6915,32.7867 27.70095,32.9466 L28.40355,44.82285 C28.5054,46.54635 27.1353,48 25.40865,48 L6.80364,48 C5.146785,48 3.80364,46.6569 3.80364,45 L3.80364,33.0801 C3.80364,32.8608 3.8277,32.6421 3.87537,32.42805 L6.97287,18.5184 L3.94707,7.47525 L1.770405,4.965675 Z M8.8143,3 L4.03671,3 L6.66021,6.02475 L9.86625,17.72565 C9.9954,18.19725 10.0074,18.6933 9.9012,19.1706 L7.82805,28.4796 L12,28.47945 C12.41415,28.47945 12.75,28.8153 12.75,29.22945 C12.75,29.64375 12.4143,29.97945 12,29.97945 L7.494075,29.9796 L6.80364,33.0801 L6.80364,41.25 L25.18695,41.25 L24.7062,33.12375 L24.006,29.97945 L19.5,29.97945 C19.0857,29.97945 18.75,29.6436 18.75,29.22945 C18.75,28.81515 19.0857,28.47945 19.5,28.47945 L23.67195,28.47945 L21.59895,19.1706 C21.49275,18.6933 21.50475,18.19725 21.6339,17.72565 L24.82185,6.090705 L27.06105,3 L22.68585,3 L22.18095,6.735285 C22.03005,7.851315 21.2667,8.78883 20.20455,9.16296 L16.7466,10.380825 C16.10175,10.607985 15.3984,10.607985 14.7534,10.380825 L11.2956,9.16296 C10.2333,8.788845 9.4701,7.851315 9.3192,6.735285 L8.8143,3 Z M6.80364,45 L6.80364,42.75 L25.2756,42.75 L25.40865,45 L6.80364,45 Z M12.75,13.5 C12.33585,13.5 12,13.83579 12,14.25 C12,14.66421 12.33585,15 12.75,15 L18.75,15 C19.16415,15 19.5,14.66421 19.5,14.25 C19.5,13.83579 19.16415,13.5 18.75,13.5 L12.75,13.5 Z" id="Shape"></path>
                </g>
            </g>
        </g>
    </g>
</svg>