<?xml version="1.0" encoding="UTF-8"?>
<svg width="27px" height="48px" viewBox="0 0 27 48" version="1.1" xmlns="http://www.w3.org/2000/svg" xmlns:xlink="http://www.w3.org/1999/xlink">
    <!-- Generator: Sketch 59.1 (86144) - https://sketch.com -->
    <title>Svg/icon/3</title>
    <desc>Created with Sketch.</desc>
    <g id="Size" stroke="none" stroke-width="1" fill="none" fill-rule="evenodd">
        <g id="1366/Size" transform="translate(-374.000000, -1844.000000)" fill="#848483">
            <g id="Atom/Icons/Other/32/Jeans" transform="translate(363.000000, 1844.000000)">
                <g id="Jeans-and-trousers" transform="translate(10.500000, 0.000000)">
                    <path d="M18,0 L18,13.5 L10.5,13.5 L10.5,0 L7.5,0 L7.5,13.5 L4.5,13.5 L4.5,20.9121 L1.31319,48 L10.19025,48 L14.25,30.6012 L18.30975,48 L27.18675,48 L24,20.9121 L24,13.5 L21,13.5 L21,0 L18,0 Z M7.5,21.0879 L7.5,16.5 L13.5,16.5 L13.5,21 L15,21 L15,16.5 L21,16.5 L21,21.0879 L21.69555,27 L19.5,27 L19.5,36 L22.7544,36 L23.81325,45 L20.69025,45 L15.7107,23.6592 L12.7893,23.6592 L7.80975,45 L4.68675,45 L5.7456,36 L9,36 L9,27 L6.80445,27 L7.5,21.0879 Z M21,28.5 L21.87195,28.5 L22.57785,34.5 L21,34.5 L21,28.5 Z M6.62805,28.5 L5.92215,34.5 L7.5,34.5 L7.5,28.5 L6.62805,28.5 Z" id="Union"></path>
                </g>
            </g>
        </g>
    </g>
</svg>