<?xml version="1.0" encoding="UTF-8"?>
<svg width="48px" height="39px" viewBox="0 0 48 39" version="1.1" xmlns="http://www.w3.org/2000/svg" xmlns:xlink="http://www.w3.org/1999/xlink">
    <!-- Generator: Sketch 59.1 (86144) - https://sketch.com -->
    <title>Svg/icon/4</title>
    <desc>Created with Sketch.</desc>
    <g id="Size" stroke="none" stroke-width="1" fill="none" fill-rule="evenodd">
        <g id="1366/Size" transform="translate(-363.000000, -2503.000000)" fill="#848483">
            <g id="Atom/Icons/Other/32/Shoes" transform="translate(363.000000, 2500.000000)">
                <path d="M28.46055,10.137 L28.5,3 L46.5,3 C46.5271,7.95946 46.30175,11.38075 45.82395,13.26387 C45.10725,16.08855 45.1422,19.03785 45.92625,21.84675 L47.27445,26.67765 C47.75595,28.4028 48,30.18105 48,31.9674 L48,41.9997 L33.3333,41.9997 L33.3333,36.7497 L29.25,36.7497 L29.25,41.9997 L3,41.9997 L1.879575,41.9997 L0,35.6481 L0,35.43075 C0,34.7025 0.168549,33.37965 0.345177,32.2506 C0.4367985,31.665 0.5370285,31.0914 0.631308,30.618 C0.715101,30.19725 0.8193705,29.7198 0.934485,29.4225 C1.1518245,28.86105 1.53636,28.3317 1.898145,27.8994 C2.278215,27.4452 2.723025,26.99355 3.15624,26.58375 C4.416135,25.39215 6.117735,24.89115 7.745325,24.9615 C10.05483,25.0611 12.893565,25.1727 13.926195,25.1781 C21.77895,24.36405 27.915,18.0201 28.46055,10.137 Z M3.67662,37.5 L4.120425,38.9997 L26.25,38.9997 L26.25,37.5 L3.67662,37.5 Z M3.23274,36 L26.25,36 L26.25,33.7497 L36.3333,33.7497 L45,33.75 L45,31.9674 C45,30.4545 44.79345,28.9476 44.38485,27.48405 L43.03665,22.6533 C42.11205,19.34025 42.0705,15.8586 42.9162,12.525975 C43.48,10.304225 43.6746,8.1289 43.5,6 L31.5,6 L31.45335,10.344075 C31.3404,11.97621 31.02525,13.55265 30.5322,15.04815 L33.82935,16.52985 C34.2072,16.69965 34.3758,17.14365 34.206,17.5215 C34.0362,17.8992 33.59235,18.06795 33.2145,17.89815 L30.00585,16.4562 C29.622,17.37195 29.1693,18.25185 28.6545,19.08945 L31.8876,21.0489 C32.2419,21.26355 32.355,21.7248 32.14035,22.07895 C31.9257,22.43325 31.46445,22.54635 31.11015,22.3317 L27.8187,20.33685 C27.37095,20.952 26.88765,21.53955 26.3715,22.09665 L29.2398,24.40485 C29.56245,24.66465 29.6136,25.1367 29.3538,25.45935 C29.09415,25.78215 28.6221,25.83315 28.2993,25.5735 L25.30365,23.16255 C24.80295,23.6247 24.2775,24.0606 23.72955,24.46815 L26.79915,27.768 C27.0813,28.0713 27.06405,28.5459 26.7609,28.8279 C26.4576,29.11005 25.983,29.09295 25.70085,28.78965 L22.47765,25.3248 C20.02395,26.8653 17.1939,27.8691 14.14791,28.17105 L14.074215,28.17825 L13.999995,28.17825 C12.953745,28.17825 9.94869,28.05945 7.615905,27.95865 C6.658695,27.9174 5.79309,28.2192 5.21769,28.7634 C4.831005,29.1291 4.47678,29.49255 4.198905,29.82465 C3.9051,30.1758 3.77253,30.40305 3.73311,30.5031 C3.727065,30.5253 3.711525,30.57825 3.68682,30.68025 C3.654195,30.81495 3.615825,30.99165 3.573525,31.20405 C3.48918,31.6275 3.396,32.1591 3.30912,32.7144 C3.15093,33.72555 3.03243,34.6977 3.005685,35.23275 L3.23274,36 Z M45,35.25 L36.3333,35.25 L36.3333,38.9997 L45,38.9997 L45,35.25 Z" id="Shape"></path>
            </g>
        </g>
    </g>
</svg>