<?xml version="1.0" encoding="UTF-8"?>
<svg width="28px" height="48px" viewBox="0 0 28 48" version="1.1" xmlns="http://www.w3.org/2000/svg" xmlns:xlink="http://www.w3.org/1999/xlink">
    <!-- Generator: Sketch 59.1 (86144) - https://sketch.com -->
    <title>Svg/icon/5</title>
    <desc>Created with Sketch.</desc>
    <g id="Size" stroke="none" stroke-width="1" fill="none" fill-rule="evenodd">
        <g id="1366/Size" transform="translate(-373.000000, -3205.000000)" fill="#848483">
            <g id="Atom/Icons/Other/32/Gloves" transform="translate(363.000000, 3205.000000)">
                <g id="Gloves" transform="translate(10.500000, 0.000000)">
                    <path d="M12,0 C10.3431,0 9,1.343145 9,3 L9,4.5 C6.51465,4.5 4.5,6.514725 4.5,9 L4.5,13.5 C2.016495,13.50018 0,15.51105 0,17.9979 L0,31.5 C0,33.4266 0.801915,35.05005 1.710615,36.2496 C2.3577,37.1037 3.096945,37.79475 3.75,38.2899 L3.75,48 L24,48 L24,37.0389 L27,29.5389 L27,11.25 C27,8.764725 24.98535,6.75 22.5,6.75 C22.5,4.264725 20.48535,2.25 18,2.25 L17.9055,2.25 C17.5725,0.956079 16.39785,0 15,0 L12,0 Z M12,3 L15,3 L15,4.5 L15,5.25 L15,17.25 C15,17.66415 15.33585,18 15.75,18 C16.16415,18 16.5,17.66415 16.5,17.25 L16.5,5.25 L18,5.25 C18.82845,5.25 19.5,5.92158 19.5,6.75 L19.5,7.5 L19.5,9.75 L19.5,20.25 C19.5,20.66415 19.83585,21 20.25,21 C20.66415,21 21,20.66415 21,20.25 L21,9.75 L22.5,9.75 C23.32845,9.75 24,10.42158 24,11.25 L24,28.9611 L21,36.4611 L21,45 L6.75,45 L6.75,36.6507 L6.02175,36.21375 C5.5494,35.9304 4.7595,35.30595 4.101885,34.4379 C3.448095,33.57495 3,32.5734 3,31.5 L3,17.9979 C3,17.1711 3.670305,16.5 4.5003,16.5 L6,16.5 L6,24.4413 L6.3858,24.65565 C6.4851,24.71085 6.5889,24.7677 6.6966,24.8268 L6.69705,24.8271 C7.8375,25.4529 9.417,26.3196 10.7805,27.8703 C12.25125,29.54295 13.5,32.05335 13.5,36 C13.5,36.41415 13.83585,36.75 14.25,36.75 C14.66415,36.75 15,36.41415 15,36 C15,31.69665 13.62375,28.8321 11.907,26.8797 C10.39485,25.1601 8.6412,24.18105 7.5,23.5563 L7.5,16.5 L7.5,9 C7.5,8.17158 8.17155,7.5 9,7.5 L10.5,7.5 L10.5,17.25 C10.5,17.66415 10.83585,18 11.25,18 C11.66415,18 12,17.66415 12,17.25 L12,7.5 L12,3 Z" id="Shape"></path>
                </g>
            </g>
        </g>
    </g>
</svg>