<?xml version="1.0" encoding="UTF-8"?>
<svg width="48px" height="34px" viewBox="0 0 48 34" version="1.1" xmlns="http://www.w3.org/2000/svg" xmlns:xlink="http://www.w3.org/1999/xlink">
    <!-- Generator: Sketch 59.1 (86144) - https://sketch.com -->
    <title>Svg/icon/6</title>
    <desc>Created with Sketch.</desc>
    <g id="Size" stroke="none" stroke-width="1" fill="none" fill-rule="evenodd">
        <g id="1366/Size" transform="translate(-363.000000, -3660.000000)" fill="#848483">
            <g id="Atom/Icons/Other/32/Guard-uniform" transform="translate(363.000000, 3653.000000)">
                <path d="M24.7275,7.63572 C24.24975,7.51629 23.7501,7.51629 23.27235,7.63572 L6.260085,11.888775 C5.463195,12.08799 4.782855,12.60525 4.37781,13.31985 L0.672096,19.8576 C0.09111705,20.88255 0.163884,22.15275 0.8581155,23.10465 L4.49991,28.0983 L4.49991,31.03905 C4.49991,31.6398 4.68027,32.2266 5.01762,32.7237 L8.50992,37.86945 C9.62661,39.5148 11.485965,40.5 13.4745,40.5 L33.80685,40.5 C35.78115,40.5 37.62915,39.52875 38.74875,37.9026 L42.29625,32.7504 C42.654,32.23065 42.83895,31.61115 42.8244,30.98025 L42.76245,28.27725 L46.99005,23.19525 C47.78805,22.236 47.90895,20.883 47.29365,19.79745 L43.6221,13.31985 C43.21695,12.60525 42.5367,12.08799 41.73975,11.888775 L24.7275,7.63572 Z M6.987705,14.79915 L23.99985,10.54614 L41.0121,14.79915 L44.6838,21.27675 L39.9657,26.94825 L24.00285,25.497 L7.3293,26.8866 L3.281985,21.3369 L6.987705,14.79915 Z M7.49991,28.37745 L7.49991,31.03905 L7.812765,31.5 L39.5148,31.5 L39.8253,31.0491 L39.7653,28.43625 L23.99715,27.0027 L7.49991,28.37745 Z M10.99221,36.18465 L8.8308,33 L38.48205,33 L36.2778,36.2013 C35.718,37.0143 34.794,37.5 33.80685,37.5 L13.4745,37.5 C12.48024,37.5 11.550555,37.0074 10.99221,36.18465 Z M28.5,13.5 L19.5,13.5 L19.5,21.42465 L24,24.12465 L28.5,21.42465 L28.5,13.5 Z M21,20.57535 L21,15 L27,15 L27,20.57535 L24,22.37535 L21,20.57535 Z" id="Shape"></path>
            </g>
        </g>
    </g>
</svg>