<?xml version="1.0" encoding="UTF-8"?>
<svg width="48px" height="32px" viewBox="0 0 48 32" version="1.1" xmlns="http://www.w3.org/2000/svg" xmlns:xlink="http://www.w3.org/1999/xlink">
    <!-- Generator: Sketch 59.1 (86144) - https://sketch.com -->
    <title>Svg/icon/7</title>
    <desc>Created with Sketch.</desc>
    <g id="Size" stroke="none" stroke-width="1" fill="none" fill-rule="evenodd">
        <g id="1366/Size" transform="translate(-363.000000, -4270.000000)" fill="#848483">
            <g id="Atom/Icons/Other/32/Belt" transform="translate(363.000000, 4261.000000)">
                <g id="Belts" transform="translate(0.000000, 9.000000)">
                    <path d="M3,9.75 C3,9.20745 3.29496,8.50065 4.2507,7.6722 C5.20248,6.84705 6.6669,6.03585 8.606475,5.324685 C12.473655,3.90672 17.91585,3 24,3 C30.08415,3 35.5263,3.90672 39.39345,5.324685 C41.3331,6.03585 42.79755,6.84705 43.7493,7.6722 C44.7051,8.50065 45,9.20745 45,9.75 C45,10.25265 44.7468,10.8963 43.94955,11.64705 C42.135,10.5648 39.8121,9.68445 37.2039,9.0192 C33.42675,8.05575 28.87725,7.5 24,7.5 C19.12275,7.5 14.573265,8.05575 10.79613,9.0192 C8.1879,9.68445 5.864955,10.5648 4.05048,11.64705 C3.253185,10.8963 3,10.25265 3,9.75 Z M0,9.75 C0,8.01435 0.964236,6.5508 2.28561,5.405325 C3.610965,4.256385 5.441595,3.28983 7.57371,2.50806 C11.84994,0.94011 17.6577,0 24,0 C30.3423,0 36.15,0.94011 40.42635,2.50806 C42.55845,3.28983 44.38905,4.256385 45.71445,5.405325 C47.0358,6.5508 48,8.01435 48,9.75 L48,22.5 C48,24.19215 46.9698,25.5654 45.6603,26.5974 C44.33385,27.64275 42.50745,28.5186 40.3842,29.2263 C36.1221,30.64695 30.32955,31.5 24,31.5 C17.67045,31.5 11.87784,30.64695 7.615755,29.2263 C5.49255,28.5186 3.666135,27.64275 2.3397,26.5974 C1.030179,25.5654 0,24.19215 0,22.5 L0,9.75 Z M45,14.6616 C43.7616,15.56505 42.198,16.34235 40.42635,16.992 C37.91265,17.9136 34.8696,18.61845 31.5,19.0428 L31.5,22.5 L34.5,22.5 L34.5,24 L31.5,24 L31.5,28.0626 C34.5369,27.69495 37.2387,27.1125 39.4356,26.38035 C41.3841,25.73085 42.85275,24.99045 43.80345,24.2412 C44.77095,23.4786 45,22.8789 45,22.5 L45,14.6616 Z M30,28.22385 L30,24 L25.5,24 L25.5,22.5 L30,22.5 L30,19.2108 C28.07985,19.39995 26.06835,19.5 24,19.5 C22.464,19.5 20.9592,19.4448 19.5,19.33905 L19.5,28.3464 C20.9487,28.4469 22.4538,28.5 24,28.5 C26.08755,28.5 28.1001,28.4031 30,28.22385 Z M18,28.22385 C14.350815,27.8796 11.11683,27.23115 8.564445,26.38035 C6.615945,25.73085 5.14731,24.99045 4.196625,24.2412 C3.22902,23.4786 3,22.8789 3,22.5 L3,14.6616 C4.23843,15.56505 5.801985,16.34235 7.57371,16.992 C10.45536,18.0486 14.0325,18.82005 18,19.2108 L18,28.22385 Z M36.46245,11.92605 C38.2425,12.3801 39.77505,12.9165 41.03265,13.5 C40.53105,13.7328 39.9843,13.9587 39.39345,14.1753 C35.5263,15.59325 30.08415,16.5 24,16.5 C17.91585,16.5 12.473655,15.59325 8.606475,14.1753 C8.01564,13.9587 7.468905,13.7328 6.967305,13.5 C8.22492,12.9165 9.75759,12.3801 11.53755,11.92605 C15.0402,11.03265 19.3374,10.5 24,10.5 C28.66275,10.5 32.9598,11.03265 36.46245,11.92605 Z" id="Union"></path>
                </g>
            </g>
        </g>
    </g>
</svg>