<?xml version="1.0" encoding="UTF-8"?>
<svg width="240px" height="200px" viewBox="0 0 240 200" version="1.1" xmlns="http://www.w3.org/2000/svg" xmlns:xlink="http://www.w3.org/1999/xlink">
    <!-- Generator: Sketch 59.1 (86144) - https://sketch.com -->
    <title>Svg/cloth</title>
    <desc>Created with Sketch.</desc>
    <g id="Size" stroke="none" stroke-width="1" fill="none" fill-rule="evenodd">
        <g id="1366/Size" transform="translate(-1064.000000, -256.000000)" fill-rule="nonzero">
            <g id="Svg/cloth" transform="translate(1064.000000, 256.000000)">
                <path d="M147.458,200 L131.186,200 L131.186,166.108 L140.518,169.054 L147.458,166.605 L147.458,200 Z M149.895,131.703 L148.178,146.607 L146.5,146.847 L146.5,132.76 L149.895,131.703 Z M150.856,123.297 L150.849,123.423 L150.146,129.53 L145.235,131.059 L144.5,131.234 L144.5,124.792 L150.856,123.297 Z M92.26,103.938 L93.7819,91.2689 L106.908,93.3363 C106.4375,95.3436 105.242,98.0831 103.0605,100.277 C100.7451,102.606 97.2882,104.357 92.26,103.938 Z M91.597,129.45 L90.7947,123.581 L90.7737,123.209 L97.5,124.792 L97.5,131.234 L96.7648,131.059 L91.597,129.45 Z M93.9452,146.625 L91.8962,131.638 L95.5,132.76 L95.5,146.847 L93.9452,146.625 Z M112.8814,166.102 L112.8814,200 L97.1429,200 L95.2899,166.14 L104.5176,169.054 L112.8814,166.102 Z M128.714,44.9431 L127.487,32.1179 L142.247,30.5874 L142.247,44.1065 L128.714,44.9431 Z M143.061,26.071 L143.582,28.4391 L126.354,30.2254 L125.707,30.2254 L126.298,26.9401 L143.061,26.071 Z M112.7024,26.9401 L113.2933,30.2254 L112.6462,30.2254 L95.4184,28.4391 L95.9389,26.071 L112.7024,26.9401 Z M96.7531,44.1065 L96.7531,30.5874 L111.5134,32.1179 L110.2857,44.9431 L96.7531,44.1065 Z M163.843,32.1127 L164.286,35.2381 L167.143,43.3953 L164.192,43.8746 L160.76,33.0372 L163.843,32.1127 Z M163.141,27.1516 L163.56,30.1098 L158.76,31.5489 L158.163,28.644 L163.141,27.1516 Z M76.4374,30.109 L76.8567,27.151 L81.8364,28.644 L81.2402,31.5489 L76.4374,30.109 Z M73.5609,43.5097 L75.2381,38.5714 L76.1536,32.1118 L79.24,33.0372 L75.8075,43.8746 L73.5609,43.5097 Z M123.051,114.286 L116.9492,114.286 L112.8814,150 L112.8814,164 L112.6672,164.057 L104.4824,166.946 L95.3011,164.046 L95,164 L94.4066,150 L94.2269,148.685 L97.5,149.153 L97.5,133.29 L99.5,133.766 L99.5,123.208 L90.6559,121.127 L90.5085,118.519 L92.0214,105.925 C97.7031,106.419 101.7552,104.427 104.4789,101.687 C107.0123,99.1392 108.3688,95.9762 108.8882,93.6482 L118.9831,95.2381 L134.017,93.181 C134.45,95.539 135.814,98.9643 138.521,101.687 C141.186,104.368 145.124,106.333 150.616,105.953 L151.525,110.053 L150.961,121.217 L142.5,123.208 L142.5,133.766 L144.5,133.29 L144.5,149.153 L147.941,148.661 L147.458,152.857 L147.458,164.484 L140.482,166.946 L131.301,164.046 L131.186,164 L131.186,152.857 L125.714,133.81 L123.051,114.286 Z M150.178,103.976 C145.453,104.224 142.168,102.518 139.939,100.277 C137.573,97.8971 136.367,94.8753 135.988,92.8423 L147.353,91.241 L150.178,103.976 Z M60,91.0053 L66.6667,63.8095 L72.9088,45.43 L77.1924,46.1257 L81.156,33.6116 L82.7598,34.0924 L84.1635,27.2537 L77.1405,25.1482 L78.3051,16.9312 L90.9545,6.19048 L102.014,1.86421 L113.0329,11.8813 L117.9032,7.01102 L118.7971,87.5866 L94.4066,83.3321 L94.4066,63.8095 L90.5085,52.9101 L80.9524,68.5714 L72.2034,95.2381 L60,91.0053 Z M104.0928,1.05106 L106.7797,-2.13162821e-13 C109.8471,2.65985 113.5328,4.248 117.34,4.74574 L112.9671,9.11866 L104.0928,1.05106 Z M114.3739,25.0247 L94.3652,23.9874 L93,30.1983 L94.7695,30.3818 L94.7695,45.9871 L112.0762,47.0569 L113.496,32.2248 L115.6688,32.2248 L114.3739,25.0247 Z M133.22,-2.13162821e-13 L134.802,0.692588 L125.533,9.11866 L121.2862,4.87195 C125.043,4.62341 128.752,3.32081 131.947,0.946551 L133.22,-2.13162821e-13 Z M136.808,1.57145 L147.353,6.19048 L161.695,16.9312 L162.858,25.1486 L155.836,27.2537 L157.24,34.0924 L158.844,33.6116 L162.807,46.1257 L167.815,45.3125 L170.847,53.9683 L180,91.0053 L167.797,95.2381 L161.695,70.4762 L151.525,48.6772 L145.594,63.8095 L145.594,83.3054 L120.7779,87.3281 L119.8789,6.29316 L125.467,11.8813 L136.808,1.57145 Z M146,30.1983 L144.635,23.9874 L124.626,25.0247 L123.331,32.2248 L125.504,32.2248 L126.924,47.0569 L144.23,45.9871 L144.23,30.3818 L146,30.1983 Z" id="Shape" fill="#333333"></path>
                <rect id="Rectangle" fill="#E11F24" opacity="0.3" x="0" y="31" width="240" height="1"></rect>
                <rect id="Rectangle" fill="#E11F24" opacity="0.3" x="0" y="80" width="240" height="1"></rect>
                <rect id="Rectangle" fill="#E11F24" opacity="0.3" x="0" y="113" width="240" height="1"></rect>
            </g>
        </g>
    </g>
</svg>