<?xml version="1.0" encoding="UTF-8"?>
<svg width="118px" height="143px" viewBox="0 0 118 143" version="1.1" xmlns="http://www.w3.org/2000/svg" xmlns:xlink="http://www.w3.org/1999/xlink">
    <!-- Generator: Sketch 59.1 (86144) - https://sketch.com -->
    <title>Svg/foot</title>
    <desc>Created with Sketch.</desc>
    <g id="Size" stroke="none" stroke-width="1" fill="none" fill-rule="evenodd">
        <g id="1366/Size" transform="translate(-1125.000000, -2324.000000)" fill-rule="nonzero">
            <g id="Svg/foot" transform="translate(1125.000000, 2324.000000)">
                <path d="M14.5,56 L14.6475688,55.8032416 C15.4758658,54.6988637 16.8150784,54.0996331 18.1904769,54.2179779 C22.8078145,54.6152723 26.7443222,54.542613 30,54 C35.6385549,53.0602409 38,51 38,51 C38,51 43.6666667,48 55,42 L67.2429504,31.7975413 C70.8908318,28.7576401 73,24.2544783 73,19.5060009 L73,0 L102,0 L100.216557,27.6433612 C100.072888,29.8702384 100.240494,32.1062715 100.714532,34.2868473 L103.788965,48.4292376 C104.584568,52.0890112 104.485441,55.8867145 103.5,59.5 C102.614388,62.7472432 99.6649655,65 96.2991229,65 L90.0700247,65 C88.6957352,65 87.3271722,64.8229401 85.9981319,64.4731926 L77.1437856,62.1431015 C71.8054706,60.7382817 66.1945294,60.7382817 60.8562144,62.1431015 L51.0009341,64.7365963 C50.3364139,64.91147 49.6521324,65 48.9649877,65 L31,65 L18.8899011,63.3853201 C17.0637194,63.1418293 15.4478776,62.079796 14.5,60.5 L14.2862394,60.1437323 C13.5084819,58.8474698 13.5929867,57.2093511 14.5,56 Z" id="Path" fill="#333333"></path>
                <rect id="Rectangle" fill="#E11F24" opacity="0.3" x="0" y="65" width="118" height="1"></rect>
                <rect id="Rectangle" fill="#E11F24" opacity="0.3" x="0" y="129" width="118" height="1"></rect>
                <rect id="Rectangle" fill="#E11F24" opacity="0.3" transform="translate(13.000000, 110.500000) rotate(-90.000000) translate(-13.000000, -110.500000) " x="-19" y="110" width="64" height="1"></rect>
                <rect id="Rectangle" fill="#E11F24" opacity="0.3" transform="translate(105.000000, 110.500000) rotate(-90.000000) translate(-105.000000, -110.500000) " x="73" y="110" width="64" height="1"></rect>
                <rect id="Rectangle" fill="#E11F24" opacity="0.3" transform="translate(13.000000, 41.500000) rotate(-90.000000) translate(-13.000000, -41.500000) " x="-19" y="41" width="64" height="1"></rect>
                <rect id="Rectangle" fill="#E11F24" opacity="0.3" transform="translate(105.000000, 41.500000) rotate(-90.000000) translate(-105.000000, -41.500000) " x="73" y="41" width="64" height="1"></rect>
                <path d="M13,103 C13,101 15,99.6666667 19,99 C27.6666667,98.3333333 32,98 32,98 C33.5922753,98 35.1845506,98 36.7768259,98 C41.5554791,98 46.2973446,98.835398 50.7882915,100.46847 L55,102 C62.194896,104.616326 69.9702464,105.205951 77.4774025,103.704519 L86.5657612,101.886848 C89.4884237,101.302315 92.5020352,101.346624 95.4062497,102.016827 L99.0616151,102.860373 C102.008247,103.540365 104.185064,106.035706 104.458851,109.047361 L104.696334,111.659673 C104.89484,113.84324 104.480548,116.038904 103.5,118 C102.54553,119.908941 100.823141,121.320962 98.7640838,121.882523 L92.0474482,123.714332 C91.3511952,123.904219 90.6364323,124.018178 89.9156503,124.054217 L75.4341968,124.77829 C72.4805185,124.925974 69.5378012,125.2437 66.6206713,125.729888 L47.6530917,128.891151 C47.2184402,128.963593 46.7785466,129 46.3378998,129 L32,129 C29.3333333,128.333333 28,127.333333 28,126 C28,124.666667 28.3333333,124 29,124 C25,124.666667 22.6666667,124 22,122 C21.3333333,120 22,119 24,119 L21,119 C19.4658688,118.003989 18.7992021,117.003989 19,116 C19.2007979,114.996011 19.5341312,114.329344 20,114 C17.3333333,113.333333 16,112 16,110 C16,108 17,107 19,107 C15,106.333333 13,105 13,103 Z" id="Path" fill="#333333"></path>
            </g>
        </g>
    </g>
</svg>