<?xml version="1.0" encoding="UTF-8"?>
<svg width="240px" height="196px" viewBox="0 0 240 196" version="1.1" xmlns="http://www.w3.org/2000/svg" xmlns:xlink="http://www.w3.org/1999/xlink">
    <!-- Generator: Sketch 59.1 (86144) - https://sketch.com -->
    <title>pants</title>
    <desc>Created with Sketch.</desc>
    <g id="Size" stroke="none" stroke-width="1" fill="none" fill-rule="evenodd">
        <g id="1366/Size" transform="translate(-1064.000000, -1616.000000)" fill-rule="nonzero">
            <g id="pants" transform="translate(1064.000000, 1616.000000)">
                <g id="Комбинезон" transform="translate(86.000000, 0.000000)" fill="#333333">
                    <path d="M15.236278,66.07817 L16.230428,66.18622 L16.264328,65.87432 L19.626928,66.22212 C18.678828,68.82162 16.712328,72.39682 13.720828,75.15552 C10.864328,77.78992 7.105528,79.65812 2.373828,79.27872 L3.736288,64.57822 L13.059647,65.54271 L16,43 L17,26 L15,0 L17.733228,0 L19.738528,25.56752 L18.733228,43.16082 L16.264328,65.87432 L14.244087,65.9521 L14.242128,65.97012 L15.236278,66.07817 L14.242128,65.97012 L14.274928,65.66842 L16.264328,65.87432 L16.230428,66.18622 L15.236278,66.07817 Z M51.23628,66.07817 L52.23043,65.97012 L52.22511,65.92123 L50.20363,65.83152 L47.739428,43.16082 L46.734028,25.56752 L48.739328,0 L52,0 L50,26 L51,43 L53.92943,65.45895 L62.73633,64.57822 L65.18073,79.16413 C59.97353,79.87902 55.28993,77.95742 52.25173,75.15552 C49.25853,72.39522 47.291428,68.81742 46.344028,66.21753 L50.20363,65.83152 L50.24213,66.18622 L51.23628,66.07817 L50.24213,66.18623 L50.20363,65.83153 L52.19373,65.63253 L52.23043,65.97013 L51.23628,66.07818 L51.23628,66.07817 Z M5.291848,128.33812 L1.458718,129.50712 L1.7e-05,116.07812 L1.7e-05,112.08512 L5.291848,114.24912 L5.291848,128.33812 Z M7.736298,109.26212 L7.736298,113.08912 L0,109.92413 L0,106.25412 L7.736298,109.26212 Z M36.495228,82.96973 L33.736328,84.42183 L33.736328,67.47823 L36.730928,67.17883 L36.495228,82.96973 Z M60.73633,109.26213 L68.44193,106.26613 L68.39663,107.17013 L68.39663,109.95513 L60.73633,113.08913 L60.73633,109.26213 Z M63.18073,114.24912 L68.39663,112.11613 L68.39663,123.57812 L67.84833,129.76212 L63.18073,128.33812 L63.18073,114.24912 Z M30.236328,97.57823 L28.236328,139.57813 L26.979828,153.81913 L13.800228,158.01213 L4.090318,153.73413 L1.678568,131.53113 L7.291848,129.81813 L7.291848,115.06813 L9.736298,116.06813 L9.736298,107.89413 L0.098741,104.14613 L0.05977,104.24613 L2.189218,81.27053 C7.592628,81.71293 11.893328,79.56153 15.076728,76.62583 C18.530428,73.44073 20.706728,69.30753 21.671828,66.43363 L31.736328,67.47483 L31.736328,87.73453 L38.477328,84.18663 L38.734128,66.97853 L44.296928,66.42223 C45.260128,69.29653 47.437528,73.43653 50.89583,76.62583 C54.34843,79.80983 59.43743,82.08533 65.50793,81.11603 L68.73633,100.37913 L68.56243,103.85513 L58.73633,107.89413 L58.73633,116.06813 L61.18073,115.06813 L61.18073,129.81813 L67.66773,131.79813 L65.73633,153.57813 L65.72093,153.90113 L52.77393,158.01613 L42.122228,153.73313 L41.236328,144.57813 L35.736328,97.57823 L30.236328,97.57823 Z M5.736328,195.57812 L3.611328,175.57812 L4.202108,156.20012 L13.672428,160.14412 L26.777528,156.11212 L26.736328,156.57812 L23.736328,195.57812 L5.736328,195.57812 Z M45.678928,195.57812 L42.736328,160.07812 L42.371928,156.31412 L52.69873,160.14012 L65.62383,155.94012 L63.73633,195.57812 L45.678928,195.57812 Z" id="Shape"></path>
                </g>
                <rect id="Rectangle" fill="#E11F24" opacity="0.3" x="0" y="66" width="240" height="1"></rect>
            </g>
        </g>
    </g>
</svg>