<?xml version="1.0" encoding="UTF-8" standalone="no"?>
<svg
   version="1.1"
   width="506.52481"
   height="263.41272"
   id="svg4"
   viewBox="0 0 506.52481 263.41272"
   sodipodi:docname="0cca0fc92c1b1404c08f005a8f654515.cdr"
   xmlns:inkscape="http://www.inkscape.org/namespaces/inkscape"
   xmlns:sodipodi="http://sodipodi.sourceforge.net/DTD/sodipodi-0.dtd"
   xmlns="http://www.w3.org/2000/svg"
   xmlns:svg="http://www.w3.org/2000/svg">
  <defs
     id="defs8" />
  <sodipodi:namedview
     id="namedview6"
     pagecolor="#ffffff"
     bordercolor="#666666"
     borderopacity="1.0"
     inkscape:pageshadow="2"
     inkscape:pageopacity="0.0"
     inkscape:pagecheckerboard="0" />
  <path
     d="m 107.1309,153.50331 c 8.1751,-32.3252 7.8749,-24.45 9.5249,-35.5502 1.6501,-11.1001 1.6507,-28.800197 -0.9748,-32.400197 -2.6252,-3.6 -5.1004,-24.3754 -3.2252,-34.5753 1.8751,-10.2 9.9751,-25.5751 30.4503,-37.2002 C 163.3813,2.1522131 176.881,-0.84768687 201.4064,0.57731313 225.9317,2.0022131 234.2565,11.752313 254.7317,11.377313 c 20.4752,-0.3751 29.5504,-4.2000999 42.0004,1.0499 12.45,5.2501 57.9005,25.1252 61.1254,27.1503 3.225,2.025 6.1501,3.075 8.5502,1.5001 2.4001,-1.575 3.6,-1.05 3.7499,-0.7501 0.15,0.2999 0.648,0.0556 0.6288,1.387 -0.0187,1.3314 -0.0375,1.9502 -0.0562,2.8502 -0.0187,0.9 0.0936,1.3689 1.425,2.1938 1.3314,0.8248 8.8314,8.5314 10.7813,11.0814 1.95,2.5501 1.5004,6.975 3.9002,9.525 2.3998,2.5501 4.7999,6.0001 6.5999,7.0501 1.8,1.0499 1.8751,4.5745 3.3001,6.0749 1.425,1.5001 3.2253,4.6505 1.65,6.6753 -1.5752,2.0248 -11.6251,5.4748 -21.4503,3.8248 -9.8249,-1.6501 -7.0498,-3.2247 -9.6749,-3.6748 -2.6252,-0.4502 -15.0749,-3e-4 -30.3752,-3.9002 -15.3003,-3.8999 -25.9504,-7.4251 -27.3753,-7.8001 -1.425,-0.375 -1.2751,0.1499 -1.425,2.4001 -0.15,2.2501 -1.7997,9.0751 -1.6501,14.3251 0.15,5.2501 0.3002,16.800397 1.2002,19.575197 0.9,2.7749 1.6501,14.7748 5.55,20.325 3.8999,5.5503 3.8248,9.4502 11.8499,12.5252 8.0252,3.075 11.1753,4.2752 13.8753,6.9001 2.7,2.6249 2.7,1.9499 2.7,1.9499 0,0 1.425,1.2002 -3.3001,0.9752 -4.725,-0.2251 -34.6456,0.2826 -35.7003,0 -1.0548,-0.2827 -11.3998,-7.5751 -16.35,-13.5752 -4.9501,-6.0001 -19.2005,-25.3505 -23.6253,-38.2504 -4.4249,-12.899897 -7.4999,-32.550197 -7.6499,-33.750097 -0.1499,-1.1999 -0.4501,-2.0251 -1.1251,-1.1251 -0.6749,0.9 -0.5998,0.9 -0.6749,3.8251 -0.0751,2.925 1.275,22.9501 4.7251,32.175197 3.45,9.2251 3.8248,9.9751 2.9999,11.9251 -0.8249,1.9499 -12.4501,18.9002 -17.9252,22.8753 -5.4751,3.975 -7.8001,5.9998 -6.825,6.7498 0.9752,0.7501 9.3751,4.5003 10.8,7.5002 1.425,3.0002 0.4502,2.175 0.4502,2.175 l -34.1255,-0.3002 c 0,0 -3.2998,-0.0748 -2.9248,-6.9749 0.3751,-6.9004 7.3503,-20.1753 11.5501,-24.3003 4.1998,-4.1249 1.65,-17.0251 2.175,-17.7001 0.525,-0.6749 -1.65,-1.125 4.125,-2.025 5.775,-0.9 9.6001,-3.6 9.6001,-3.6 l 0.75,-1.199897 c 0,0 -13.9501,2.100097 -18.8251,2.024997 -4.8751,-0.0751 -18.2254,-0.3753 -22.8753,-1.350097 -4.65,-0.9748 -8.3999,-2.6997 -9.675,-2.3998 -1.275,0.2999 -1.65,-0.7504 -3.6751,3.149797 -2.0251,3.9002 -19.65,24.0755 -23.25,25.9504 -3.6,1.8748 -4.2001,4.1998 -2.9251,5.4748 1.275,1.275 14.1001,16.2751 14.1001,18.8252 0,2.55 0.6001,3.3749 -0.9,3.7499 -1.5001,0.375 -3.3004,-0.0748 -7.5002,-1.4998 -4.1998,-1.425 -39.1501,-19.0502 -39.1501,-19.0502 0,0 5.1003,-10.5752 5.8501,-14.8502 0.7498,-4.2749 1.275,-11.0248 0.8249,-14.5499 -0.4502,-3.5252 -2.175,-13.800197 -3.975,-12.675097 -1.8,1.125 -0.3753,2.9247 -0.4502,4.6499 -0.0748,1.7252 3.0002,8.475297 -0.2248,16.875197 -3.2249,8.3999 -5.4003,14.6999 -8.0251,18.15 -2.6249,3.45 -2.2499,3.6 -0.15,4.9501 2.0996,1.3502 32.55,17.25 33.7502,18 1.2001,0.7501 0.375,0.9749 -3.225,0.7501 -3.6,-0.2248 -41.3252,-0.0749 -41.3252,-0.0749 z m 186.7439,102.8979 h 212.4 v 4.2001 h -212.4 z M 0.25,256.40061 h 212.4 v 4.2001 H 0.25 Z m 224.333,4.3124 c 0,0.7557 -0.3127,1.3578 -0.938,1.8059 -0.5598,0.4011 -1.2319,0.6018 -2.016,0.6018 -1.1012,0 -1.9412,-0.3033 -2.5197,-0.9099 -0.1962,-0.2052 -0.2942,-0.4246 -0.2942,-0.6579 0,-0.5321 0.2661,-0.798 0.7979,-0.798 0.1868,0 0.4879,0.133 0.9031,0.3989 0.4153,0.2661 0.8096,0.3991 1.1829,0.3991 0.2801,0 0.5227,-0.0561 0.728,-0.1681 0.252,-0.1307 0.3781,-0.322 0.3781,-0.574 0,-0.3172 -0.322,-0.6205 -0.966,-0.9099 -1.0452,-0.4573 -1.6379,-0.7328 -1.7779,-0.8261 -0.6441,-0.4291 -0.9661,-0.9705 -0.9661,-1.6239 0,-0.7093 0.2846,-1.2787 0.8541,-1.7079 0.5134,-0.3827 1.1387,-0.574 1.876,-0.574 0.504,0 1.0312,0.1213 1.582,0.364 0.6624,0.2894 0.9938,0.6533 0.9938,1.0919 0,0.2148 -0.07,0.3943 -0.21,0.5391 -0.1401,0.1446 -0.3172,0.2169 -0.5318,0.2169 -0.1681,0 -0.4575,-0.112 -0.868,-0.3359 -0.4107,-0.224 -0.7514,-0.336 -1.0222,-0.336 -0.2426,0 -0.4527,0.0559 -0.6298,0.1679 -0.2149,0.1213 -0.322,0.2987 -0.322,0.532 0,0.224 0.1445,0.4059 0.434,0.546 0.4852,0.2146 0.9754,0.4294 1.47,0.644 0.5973,0.2801 1.0451,0.5508 1.3439,0.8118 0.3453,0.3082 0.5179,0.7422 0.5179,1.3023 z m 3.0801,-7.3361 c 0,0.2894 -0.1003,0.5366 -0.301,0.7421 -0.2007,0.2053 -0.4456,0.3079 -0.735,0.3079 -0.2895,0 -0.5366,-0.1026 -0.7419,-0.3079 -0.2055,-0.2055 -0.3081,-0.4527 -0.3081,-0.7421 0,-0.2891 0.1026,-0.5343 0.3081,-0.735 0.2053,-0.2007 0.4524,-0.3008 0.7419,-0.3008 0.28,0 0.5227,0.1027 0.7279,0.3079 0.2055,0.2052 0.3081,0.4479 0.3081,0.7279 z m -0.1539,8.5283 c 0,0.7628 -0.2965,1.1455 -0.8892,1.1455 -0.5925,0 -0.889,-0.3827 -0.889,-1.1455 v -5.5207 c 0,-0.7628 0.2965,-1.1455 0.889,-1.1455 0.5927,0 0.8892,0.3779 0.8892,1.1316 z m 8.1618,0.0117 c 0,0.756 -0.301,1.1338 -0.9031,1.1338 -0.5831,0 -0.8748,-0.3778 -0.8748,-1.1338 v -3.4019 c 0,-1.1667 -0.4946,-1.7501 -1.4839,-1.7501 -0.9803,0 -1.4701,0.5811 -1.4701,1.743 v 3.3857 c 0,0.7722 -0.2917,1.1571 -0.875,1.1571 -0.6021,0 -0.9029,-0.3849 -0.9029,-1.1571 v -5.4694 c 0,-0.7628 0.294,-1.1432 0.8819,-1.1432 0.3172,0 0.5508,0.1258 0.6999,0.3778 0.0467,0.1307 0.098,0.2662 0.1542,0.4062 l 0.0139,0.0278 c 0.4759,-0.5692 1.1525,-0.8538 2.0298,-0.8538 0.8867,0 1.5634,0.2636 2.0302,0.7909 0.4666,0.5275 0.6999,1.239 0.6999,2.135 z m 4.8161,-6.734 c 0.513,0 0.9892,0.0842 1.4278,0.252 0.5879,0.2239 0.8821,0.5459 0.8821,0.966 0,0.4947 -0.2336,0.7421 -0.7024,0.7421 -0.2052,0 -0.4411,-0.0584 -0.7024,-0.1751 -0.2614,-0.1166 -0.5576,-0.1749 -0.8842,-0.1749 -0.5998,0 -1.0734,0.252 -1.4187,0.7537 -0.3104,0.4362 -0.4643,0.9683 -0.4643,1.5911 0,0.6698 0.1494,1.2135 0.4504,1.6333 0.3359,0.483 0.8283,0.7257 1.4746,0.7257 0.2333,0 0.5366,-0.0723 0.9122,-0.2169 0.3756,-0.1448 0.6043,-0.2171 0.6882,-0.2171 0.2149,0 0.3898,0.0723 0.5205,0.2171 0.1306,0.1446 0.1958,0.3243 0.1958,0.5389 0,0.4946 -0.4291,0.8728 -1.2877,1.1341 -0.3453,0.1026 -0.7234,0.1539 -1.1342,0.1539 -1.1199,0 -2.0066,-0.3875 -2.6597,-1.1619 -0.6253,-0.7282 -0.938,-1.6614 -0.938,-2.8 0,-1.12 0.322,-2.0486 0.9658,-2.7859 0.6814,-0.7841 1.5726,-1.1761 2.6742,-1.1761 z m 10.2478,3.5419 c 0,0.3081 -0.1004,0.5485 -0.3011,0.7211 -0.2029,0.1726 -0.462,0.2591 -0.7792,0.2591 h -4.2537 c 0.0187,0.5505 0.2146,0.9961 0.5902,1.3368 0.3733,0.3407 0.8376,0.5111 1.3884,0.5111 0.4598,0 0.9754,-0.1471 1.5517,-0.4411 0.5763,-0.2939 0.8912,-0.4411 0.9473,-0.4411 0.4689,0 0.7022,0.2382 0.7022,0.7141 0,0.1494 -0.0698,0.3175 -0.2098,0.504 -0.2988,0.392 -0.756,0.7002 -1.372,0.9241 -0.5414,0.1959 -1.0967,0.2939 -1.6662,0.2939 -1.1106,0 -2.0157,-0.392 -2.7158,-1.1761 -0.6628,-0.7466 -0.9939,-1.6846 -0.9939,-2.8139 0,-1.0919 0.3382,-2.0228 1.0148,-2.793 0.6767,-0.7699 1.5565,-1.1548 2.6391,-1.1548 0.9519,0 1.7663,0.3523 2.4429,1.057 0.6766,0.7047 1.0151,1.5375 1.0151,2.4988 z m -1.7501,-0.2379 c -0.0187,-0.5227 -0.1798,-0.9612 -0.4831,-1.3161 -0.3033,-0.3546 -0.7115,-0.5318 -1.2248,-0.5318 -0.5134,0 -0.9451,0.1772 -1.2949,0.5318 -0.3501,0.3549 -0.5437,0.7934 -0.5811,1.3161 z m 13.7477,3.689 c 0,0.5273 -0.3688,0.7909 -1.1061,0.7909 h -4.5918 c -0.6628,0 -0.9941,-0.2659 -0.9941,-0.7979 0,-0.1681 0.0887,-0.364 0.2661,-0.5879 0.2614,-0.2988 0.6441,-0.7467 1.1481,-1.3442 0.7651,-0.9613 1.4045,-1.7918 1.9179,-2.492 0.1772,-0.2333 0.4292,-0.5879 0.756,-1.0638 0.2704,-0.476 0.4059,-0.8773 0.4059,-1.2042 0,-0.3639 -0.1168,-0.665 -0.3501,-0.9028 -0.2332,-0.2381 -0.532,-0.3572 -0.896,-0.3572 -0.3546,0 -0.6624,0.1123 -0.9238,0.3362 -0.1774,0.1494 -0.3175,0.4292 -0.4201,0.8399 -0.1307,0.5321 -0.2146,0.8399 -0.252,0.9241 -0.14,0.2985 -0.3685,0.4479 -0.686,0.4479 -0.28,0 -0.4992,-0.1026 -0.6579,-0.3079 -0.1494,-0.1774 -0.2239,-0.4107 -0.2239,-0.7001 0,-0.3266 0.0513,-0.6579 0.1539,-0.9938 0.2239,-0.7189 0.6205,-1.2694 1.19,-1.6521 0.5414,-0.3639 1.1993,-0.5459 1.974,-0.5459 0.8493,0 1.5585,0.2565 2.128,0.7721 0.5879,0.5415 0.8818,1.232 0.8818,2.0744 0,0.6254 -0.21,1.2717 -0.6298,1.9344 -0.2336,0.3662 -0.7141,1.0103 -1.442,1.9366 -0.3733,0.476 -0.9615,1.1665 -1.764,2.0741 h 3.024 c 0.7279,0 1.0919,0.273 1.0919,0.8192 z m 8.4558,-4.3191 c 0,1.4468 -0.252,2.632 -0.756,3.5561 -0.6347,1.1667 -1.6147,1.7498 -2.9399,1.7498 -1.3252,0 -2.3054,-0.5831 -2.9401,-1.7498 -0.504,-0.9241 -0.756,-2.1093 -0.756,-3.5561 0,-1.4465 0.2475,-2.6272 0.7422,-3.5419 0.6346,-1.1665 1.6194,-1.7498 2.9539,-1.7498 1.3346,0 2.3194,0.5833 2.954,1.7498 0.4947,0.9147 0.7419,2.0954 0.7419,3.5419 z m -1.8199,-0.007 c 0,-0.9077 -0.1026,-1.6685 -0.3081,-2.2867 -0.3172,-0.9264 -0.8351,-1.3884 -1.554,-1.3884 -0.7373,0 -1.26,0.4575 -1.5678,1.3745 -0.2146,0.6182 -0.322,1.3836 -0.322,2.3006 0,2.4684 0.6298,3.7029 1.8898,3.7029 0.728,0 1.2461,-0.4666 1.554,-1.4023 0.2055,-0.6092 0.3081,-1.3742 0.3081,-2.3006 z m 5.4459,3.479 v -6.9999 h -0.9241 c -0.5598,0 -0.8399,-0.2336 -0.8399,-0.7002 0,-0.3359 0.2194,-0.574 0.658,-0.714 0.2242,-0.0746 0.5811,-0.1307 1.0712,-0.1678 0.4898,-0.0375 0.8841,-0.0562 1.1829,-0.0562 0.2894,0 0.4714,0.0584 0.5459,0.1752 0.0746,0.1165 0.112,0.413 0.112,0.889 v 7.5739 h 0.9519 c 0.6162,0 0.9241,0.2658 0.9241,0.7979 0,0.5598 -0.3079,0.8399 -0.9241,0.8399 h -3.8359 c -0.2707,0 -0.4969,-0.0723 -0.6789,-0.2171 -0.182,-0.1446 -0.273,-0.3476 -0.273,-0.6089 0,-0.5414 0.3127,-0.8118 0.938,-0.8118 z m 12.2638,-1.8902 c 0,0.5882 -0.0932,1.1061 -0.28,1.554 -0.2798,0.6721 -0.7186,1.2016 -1.3159,1.5891 -0.5972,0.3872 -1.2648,0.5808 -2.0021,0.5808 -0.504,0 -1.008,-0.0978 -1.512,-0.294 -0.5505,-0.2146 -0.9751,-0.4991 -1.2739,-0.8538 -0.1958,-0.2335 -0.2939,-0.4714 -0.2939,-0.714 0,-0.2055 0.0652,-0.3875 0.1959,-0.546 0.1306,-0.1587 0.2987,-0.2381 0.504,-0.2381 0.1587,0 0.4714,0.161 0.9379,0.4831 0.4669,0.322 0.9335,0.483 1.4001,0.483 0.5414,0 0.9683,-0.1797 1.281,-0.5392 0.3126,-0.3591 0.4691,-0.8096 0.4691,-1.351 0,-1.1945 -0.5414,-1.7917 -1.624,-1.7917 -0.2055,0 -0.4946,0.0629 -0.868,0.189 -0.3733,0.1259 -0.6627,0.1888 -0.8679,0.1888 -0.4295,0 -0.6441,-0.2752 -0.6441,-0.826 0,-0.0558 0.0139,-0.182 0.042,-0.3779 0.0468,-0.2426 0.07,-0.3826 0.07,-0.4201 0.0465,-0.4291 0.1772,-1.4 0.392,-2.9117 0.0465,-0.3549 0.1401,-0.5927 0.2798,-0.7141 0.1401,-0.1213 0.3875,-0.1819 0.7421,-0.1819 h 3.178 c 0.6721,0 1.008,0.2729 1.008,0.8189 0,0.5272 -0.3266,0.7909 -0.98,0.7909 h -2.6436 l -0.2846,2.016 c 0.3918,-0.1401 0.7699,-0.2101 1.1339,-0.2101 0.8867,0 1.6075,0.3314 2.1583,0.9941 0.5321,0.6253 0.7979,1.3859 0.7979,2.2819 z m -264.372,-88.172 h -8.6999 v 59.9998 H 9.7061 v -59.9998 H 1.0063 v -0.9 h 21.6998 z m 45.2001,40.0997 c 0,5.8669 -2.0835,10.8834 -6.2501,15.05 -4.1667,4.1667 -9.1832,6.2501 -15.05,6.2501 -5.8666,0 -10.8831,-2.0834 -15.0497,-6.2501 -4.1667,-4.1666 -6.2501,-9.1831 -6.2501,-15.05 0,-5.9332 2.0834,-10.9666 6.2501,-15.0998 4.1666,-4.1332 9.1831,-6.2 15.0497,-6.2 5.9335,0 10.9667,2.0668 15.1001,6.2 4.1332,4.1332 6.2,9.1666 6.2,15.0998 z m -4.2999,0 c 0,-5.6664 -1.65,-10.483 -4.9501,-14.4499 -3.3001,-3.9665 -7.3165,-5.9499 -12.0501,-5.9499 -4.6664,0 -8.6499,1.9834 -11.9498,5.9499 -3.3,3.9669 -4.9501,8.7835 -4.9501,14.4499 0,5.6002 1.6501,10.4001 4.9501,14.4 3.2999,4 7.2834,6.0001 11.9498,6.0001 4.6667,0 8.6666,-2.0001 12.0002,-6.0001 3.3332,-3.9999 5,-8.7998 5,-14.4 z m 50.0998,0.1001 c 0,5.8666 -2.0835,10.9001 -6.2501,15.0999 -4.1666,4.2001 -9.2166,6.3 -15.15,6.3 -7.3333,0 -13,-2.8667 -17,-8.5998 v 27.9998 h -4.3999 v -40.7999 c 0,-5.9332 2.0834,-10.9834 6.2501,-15.15 4.1666,-4.1667 9.2166,-6.2499 15.1498,-6.2499 5.9334,0 10.9834,2.0832 15.15,6.2499 4.1666,4.1666 6.2501,9.2168 6.2501,15.15 z m -4.3001,0 c 0,-5.6667 -1.6665,-10.4998 -5.0001,-14.5001 -3.3332,-3.9999 -7.3667,-5.9998 -12.0999,-5.9998 -4.6667,0 -8.6667,1.9999 -11.9999,5.9998 -3.3333,4.0003 -5.0001,8.8334 -5.0001,14.5001 0,5.6667 1.6668,10.5001 5.0001,14.5001 3.3332,3.9999 7.3332,5.9998 11.9999,5.9998 4.7332,0 8.7667,-1.9999 12.0999,-5.9998 3.3336,-4 5.0001,-8.8334 5.0001,-14.5001 z m 81.5998,-0.7999 c 0,5.8665 -2.1666,10.9165 -6.4999,15.15 -4.3333,4.2333 -9.5335,6.3499 -15.6002,6.3499 -6.0664,0 -11.2665,-2.0999 -15.5999,-6.3 -4.3333,-4.2001 -6.4998,-9.2667 -6.4998,-15.1999 0,-4.4666 1.3167,-8.5335 3.9498,-12.2001 2.6334,-3.6666 6.05,-6.3 10.2501,-7.8998 l 0.3999,0.9 c -4.0666,1.4666 -7.3834,3.9498 -9.9499,7.45 -2.5667,3.4999 -3.85,7.4165 -3.85,11.7499 0,5.5998 2.1501,10.4332 6.45,14.5 4.2999,4.0666 9.25,6.0999 14.8498,6.0999 4.8002,0 8.9334,-2.0166 12.4002,-6.05 3.4665,-4.0334 5.1999,-8.8832 5.1999,-14.5499 0,-5.5333 -1.55,-10.1166 -4.65,-13.7501 -3.1,-3.6331 -7.0832,-5.7166 -11.95,-6.2498 -3.3999,-0.4002 -6.0999,-1.6001 -8.1,-3.6 -1.9998,-2.0001 -2.9333,-4.4668 -2.8001,-7.4001 0.1335,-2.7335 1.1336,-5.0666 3.0002,-6.9999 1.8666,-1.9335 4.1667,-2.9001 6.8998,-2.9001 2.7335,0 5.0667,0.9666 7.0002,2.9001 1.9332,1.9333 2.8998,4.2664 2.8998,6.9999 0,1.6002 -0.3999,3.1334 -1.1999,4.6001 l -0.5,-0.2002 c 0.7333,-1.3331 1.1001,-2.7666 1.1001,-4.2998 0,-2.5334 -0.9,-4.7166 -2.7,-6.5501 -1.8,-1.8334 -3.9668,-2.7498 -6.5001,-2.7498 -1.6665,0 -3.0832,0.7333 -4.25,2.1999 -1.1667,1.4667 -1.7498,3.4665 -1.7498,5.9998 0,4.9335 2.4332,7.6335 7.2998,8.1 5.9334,0.6001 10.8666,3.2335 14.7999,7.9002 3.9334,4.6667 5.9001,9.9998 5.9001,15.9999 z m 13.1,-18.5001 h -3.2 v 39.1 h -4.3002 v -39.1 h -3.3999 v -0.9 h 3.3999 v -10.5998 h 4.3002 v 10.5998 h 3.2 z m 23.1999,-0.7999 -14.8,60.8998 h -0.7999 l 4.1998,-18 -10.1999,-42.8998 h 4.3999 l 8.2001,33.5999 8.1,-33.5999 z m 6.8998,39.8999 h -4.2999 v -60.7997 h 4.2999 z m 44.7999,-10.4 c -1.8,3.5334 -4.4,6.3833 -7.7999,8.5501 -3.4001,2.1665 -7.1668,3.2499 -11.3,3.2499 -5.8666,0 -10.9,-2.0999 -15.0999,-6.3 -4.2001,-4.2001 -6.3,-9.2333 -6.3,-15.0998 0,-5.9335 2.0999,-10.9834 6.3,-15.1501 4.1999,-4.1666 9.2333,-6.2501 15.0999,-6.2501 4.0666,0 7.7834,1.0335 11.1501,3.1 3.3667,2.0667 5.9499,4.8333 7.7499,8.3001 l -35.5,14.5001 c 0.8666,4.5997 2.85,8.4166 5.95,11.4499 3.0999,3.0331 6.65,4.5499 10.65,4.5499 3.4668,0 6.5835,-1.1165 9.3501,-3.35 2.7666,-2.2334 4.8498,-5.1834 6.2498,-8.85 z m -4,-19.1999 c -1.4,-3.3333 -3.4498,-5.9834 -6.1498,-7.9501 -2.7,-1.9667 -5.6834,-2.95 -8.9501,-2.95 -4.6667,0 -8.6666,2.0001 -11.9999,6.0001 -3.3333,4 -5,8.8333 -5,14.5001 0,0.7999 0.0666,1.9998 0.2001,3.6 z m 102.1,-1.3 c 0,8.7999 -3.0167,16.3499 -9.0499,22.6499 -6.0333,6.3 -13.3501,9.4499 -21.9501,9.4499 -8.7999,0 -16.35,-3.0166 -22.65,-9.0499 -6.3,-6.0332 -9.4498,-13.35 -9.4498,-21.9501 0,-8.7332 3.0166,-16.2666 9.0499,-22.5997 6.0332,-6.3335 13.3832,-9.5001 22.0498,-9.5001 4.8668,0 9.8167,1.3 14.8502,3.8999 5.0332,2.6003 8.9832,5.9667 11.8499,10.1002 l -2.7,1.5998 c -2.45,-4.5331 -5.8334,-8.1331 -10.1333,-10.8 -4.2834,-2.6665 -8.8999,-3.9665 -13.8166,-3.8999 -7.45,0.1333 -13.7835,3.2332 -19.0168,9.2999 -5.2166,6.0667 -7.8332,13.3668 -7.8332,21.8999 0,8.3336 2.7334,15.4336 8.1833,21.3001 5.4666,5.8666 11.9835,8.7999 19.5667,8.7999 7.5166,0 13.8832,-3.0665 19.1166,-9.1998 5.2166,-6.1334 7.8332,-13.4666 7.8332,-22 0,-2.7335 -0.3665,-5.4666 -1.0998,-8.2001 h -26.7001 v -0.9 h 30.6 c 0.8665,3.1335 1.3,6.1668 1.3,9.1001 z m 15.4998,-7.4999 c 0,1.7331 -0.9,2.5999 -2.7,2.5999 -1.8,0 -2.7,-0.8668 -2.7,-2.5999 0,-0.5335 0.2001,-1.0667 0.6001,-1.6002 -1.3334,0.5335 -2.1668,1.6334 -2.4999,3.3001 v 36.6999 h -4.3001 v -40 h 4.3001 v 1.0001 c 0.9998,-1.4 2.5333,-2.0999 4.5998,-2.0999 1.8,0 2.7,0.9 2.7,2.7 z m 45.6001,18.4997 c 0,5.8669 -2.0835,10.8834 -6.2501,15.05 -4.1667,4.1667 -9.1831,6.2501 -15.05,6.2501 -5.8666,0 -10.8831,-2.0834 -15.0497,-6.2501 -4.1666,-4.1666 -6.2501,-9.1831 -6.2501,-15.05 0,-5.9332 2.0835,-10.9666 6.2501,-15.0998 4.1666,-4.1332 9.1831,-6.2 15.0497,-6.2 5.9335,0 10.9667,2.0668 15.1002,6.2 4.1332,4.1332 6.1999,9.1666 6.1999,15.0998 z m -4.2999,0 c 0,-5.6664 -1.65,-10.483 -4.9501,-14.4499 -3.3001,-3.9665 -7.3165,-5.9499 -12.0501,-5.9499 -4.6664,0 -8.6499,1.9834 -11.9497,5.9499 -3.3001,3.9669 -4.9502,8.7835 -4.9502,14.4499 0,5.6002 1.6501,10.4001 4.9502,14.4 3.2998,4 7.2833,6.0001 11.9497,6.0001 4.6667,0 8.6666,-2.0001 12.0002,-6.0001 3.3332,-3.9999 5,-8.7998 5,-14.4 z m 24.3998,12.1 c 0,2.4001 -0.8501,4.4668 -2.55,6.2002 -1.7,1.7331 -3.75,2.6 -6.1501,2.6 -2.3998,0 -4.4665,-0.8669 -6.1999,-2.6 -1.7334,-1.7334 -2.6,-3.8001 -2.6,-6.2002 v -32.1999 h 0.9 v 32.1999 c 0,2.1334 0.7665,3.9835 2.3001,5.5502 1.5332,1.5665 3.3998,2.35 5.5998,2.35 1.1333,0 2.1334,-0.7835 3.0002,-2.35 0.8665,-1.5667 1.3,-3.4168 1.3,-5.5502 v -32.1999 h 4.3999 z m 47.3,-11.9999 c 0,5.8666 -2.0834,10.9001 -6.2501,15.0999 -4.1666,4.2001 -9.2165,6.3 -15.15,6.3 -7.3333,0 -13,-2.8667 -17,-8.5998 v 27.9998 h -4.3999 v -40.7999 c 0,-5.9332 2.0835,-10.9834 6.2501,-15.15 4.1667,-4.1667 9.2166,-6.2499 15.1498,-6.2499 5.9335,0 10.9834,2.0832 15.15,6.2499 4.1667,4.1666 6.2501,9.2168 6.2501,15.15 z m -4.3001,0 c 0,-5.6667 -1.6665,-10.4998 -5.0001,-14.5001 -3.3332,-3.9999 -7.3666,-5.9998 -12.0999,-5.9998 -4.6667,0 -8.6667,1.9999 -11.9999,5.9998 -3.3333,4.0003 -5.0001,8.8334 -5.0001,14.5001 0,5.6667 1.6668,10.5001 5.0001,14.5001 3.3332,3.9999 7.3332,5.9998 11.9999,5.9998 4.7333,0 8.7667,-1.9999 12.0999,-5.9998 3.3336,-4 5.0001,-8.8334 5.0001,-14.5001 z"
     style="fill:#1b1918;fill-rule:evenodd;stroke:#1b1918;stroke-width:0.5;stroke-linecap:butt;stroke-linejoin:miter;stroke-dasharray:none"
     id="path2" />
</svg>
