<?xml version="1.0" standalone="no"?>
<!DOCTYPE svg PUBLIC "-//W3C//DTD SVG 20010904//EN"
 "http://www.w3.org/TR/2001/REC-SVG-20010904/DTD/svg10.dtd">
<svg version="1.0" xmlns="http://www.w3.org/2000/svg"
 width="84.000000pt" height="40.000000pt" viewBox="0 0 84.000000 40.000000"
 preserveAspectRatio="xMidYMid meet">

<g transform="translate(0.000000,40.000000) scale(0.100000,-0.100000)"
fill="#000000" stroke="none">
<path d="M234 322 c-74 -35 -85 -55 -82 -147 1 -44 -2 -95 -6 -113 l-9 -32 67
2 c60 1 65 3 51 18 -20 23 -19 30 12 62 22 24 35 28 77 28 28 0 47 -4 41 -8
-5 -4 -15 -20 -21 -37 -6 -16 -15 -38 -19 -47 -6 -16 -1 -18 36 -18 31 0 40 3
29 10 -12 7 -11 13 9 34 20 21 23 32 17 73 l-6 48 15 -45 c8 -25 28 -62 45
-82 28 -34 36 -38 78 -37 42 0 44 2 21 10 -33 12 -49 47 -49 106 0 39 2 44 18
38 20 -8 119 -25 145 -25 9 0 17 4 17 10 0 17 -54 89 -67 90 -7 0 -38 12 -70
27 -34 16 -87 29 -128 34 -38 4 -95 10 -125 13 -43 5 -64 3 -96 -12z m-57
-227 c-3 -20 1 -29 22 -40 16 -9 20 -14 10 -15 -30 0 -51 24 -44 53 9 34 19
36 12 2z"/>
</g>
</svg>
