<?xml version="1.0" encoding="utf-8"?>
<!-- Generator: Adobe Illustrator 25.0.1, SVG Export Plug-In . SVG Version: 6.00 Build 0)  -->
<svg version="1.1" id="Слой_1" xmlns="http://www.w3.org/2000/svg" xmlns:xlink="http://www.w3.org/1999/xlink" x="0px" y="0px"
	 viewBox="0 0 120 120" style="enable-background:new 0 0 120 120;" xml:space="preserve">
<style type="text/css">
	.st0{fill:#D0121F;}
	.st1{fill:#FFFFFF;}
	.st2{fill:#E61C43;}
</style>
<rect class="st0" width="120" height="120"/>
<path class="st1" d="M43.55,28.89l-8.26,46.86c-0.55,3.3-1.51,9.49-6.23,9.04c-5.09-0.08-3.62-4.86-3.05-9.04
	c0,0,8.27-46.86,8.27-46.86h-17.5L8.84,73.91c-1.84,8.44-2.45,21.9,18.99,21.29c17.02,1,24.97-12.3,25.28-21.29
	c0,0,7.93-45.02,7.93-45.02H43.55z"/>
<path class="st1" d="M96.2,67.54c12.9-3.02,13.75-13.86,15.38-24.7c4.53-19.29-29.34-12.82-41.53-13.95L58.57,93.96h17.38
	l4.43-25.13h0.05l6.66,25.07l17.93-0.03L96.2,67.54z"/>
<path class="st2" d="M93.11,48.87c-1.18,9.22-3.74,11.17-11.09,10.61l3.75-21.31C93.08,37.61,95.27,39.49,93.11,48.87z"/>
</svg>
