<?xml version="1.0" encoding="utf-8"?>
<!-- Generator: Adobe Illustrator 17.0.1, SVG Export Plug-In . SVG Version: 6.00 Build 0)  -->
<!DOCTYPE svg PUBLIC "-//W3C//DTD SVG 1.1//EN" "http://www.w3.org/Graphics/SVG/1.1/DTD/svg11.dtd">
<svg version="1.1" id="Layer_1" xmlns="http://www.w3.org/2000/svg" xmlns:xlink="http://www.w3.org/1999/xlink" x="0px" y="0px"
	 width="78.301px" height="76.646px" viewBox="0 0 78.301 76.646" enable-background="new 0 0 78.301 76.646" xml:space="preserve">
<g>
	<path fill-rule="evenodd" clip-rule="evenodd" fill="#BF0400" d="M51.981,60.846l1.709,5.437l2.586-5.444l4.742,0.005
		l-7.332,15.307l-4.77,0l1.86-3.836l-3.893-11.471L51.981,60.846L51.981,60.846z M16.703,60.842l-2.589,15.291L16.703,60.842
		L16.703,60.842z M14.116,76.149l2.592-15.308l8.492,0.007c2.172,0.159,3.506,1.528,3.59,4.013
		c-0.022,0.456-0.119,1.042-0.236,1.478c-0.681,2.541-2.394,4.115-4.788,4.243l-4.612,0.002l-0.943,5.563L14.116,76.149
		L14.116,76.149z M41.936,66.386l4.103-2.524c-1.106-1.749-2.676-3.157-5.166-3.45c-2.942-0.338-5.31,0.019-7.556,1.527
		c-2.015,1.369-3.551,4.166-3.923,6.598c-0.299,2.824,0.826,5.009,2.06,6.106c1.523,1.354,3.851,2.155,6.513,1.977
		c1.643-0.065,4.355-1.082,6.538-3.429l-3.265-2.576c-2.227,2.075-4.261,2.113-5.741,1.325c-0.751-0.462-1.566-1.721-1.44-3.323
		c0.151-1.699,1.565-3.402,3.542-3.92C39.121,64.395,40.942,64.603,41.936,66.386L41.936,66.386z M5.097,60.856l1.709,5.437
		l2.586-5.444l4.742,0.005L6.802,76.161l-4.77,0l1.86-3.836L0,60.854L5.097,60.856L5.097,60.856z M20.12,64.911l3.829,0.004
		c0.335,0.074,0.462,0.271,0.514,0.638c-0.009,0.181-0.037,0.335-0.095,0.487c-0.19,0.283-0.383,0.494-0.715,0.528l-3.822,0.003
		L20.12,64.911L20.12,64.911z M72.263,66.329l4.103-2.524c-1.106-1.749-2.676-3.157-5.166-3.45c-2.942-0.338-5.31,0.019-7.556,1.527
		c-2.015,1.369-3.551,4.166-3.923,6.598c-0.299,2.824,0.826,5.009,2.06,6.106c1.523,1.354,3.851,2.155,6.513,1.977
		c1.643-0.065,4.355-1.082,6.538-3.429l-3.265-2.576c-2.227,2.075-4.261,2.113-5.741,1.325c-0.751-0.462-1.566-1.721-1.44-3.323
		c0.151-1.699,1.565-3.402,3.542-3.92C69.448,64.339,71.269,64.546,72.263,66.329L72.263,66.329z M4.557,54.933l5.452-0.045
		c-0.586-1.549-0.732-2.015-2.045-2.999l-0.182-0.727c0.759-0.497,1.517-0.996,2.272-1.499c3.052-0.254,4.715-1.09,7.406-2.59
		l0.454-0.818l2.681,2.317l1.272,0.954l0.363,0.863c0.264,1.582,0.702,3.01,1.181,4.544l11.768,0.091l2.726-0.091
		c-0.702-1.211-1.49-2.165-2.363-2.862l-0.909-0.409l-1.499-0.727l-0.545-1.772c0.269-1.076,0.541-2.152,0.818-3.226l0.863-1.59
		c1.233-3.131,1.778-5.31,1.999-8.678l0.636-0.363c-0.811,3.445-1.183,6.467-0.818,9.996l0.727,1.409l0.727,2.09l0.409-0.136
		c0.655,1.515,1.311,2.344,2.408,3.59l0.409-0.273l-0.273,1.318l1,1.272l2.09,0.227l5.543,0.136l4.135-0.227l0.045-0.318
		l-0.318-0.636h0.636c-0.679-1.655-0.99-1.959-2.454-2.999c-1.266-0.165-2.157-0.302-3.317-0.818l-0.772-4.453
		c0.676-2.53,1.24-4.193,3.044-5.861l2.045-0.909c0.376,2.088,1.208,4.149,2.135,6.043l0.273-0.454l1.954,2.635l0.5-0.182
		c1.478,1.631,2.627,2.749,4.498,3.908l0.772,0.363c-0.076,1.808,0.333,2.129,2.045,2.544c1.127-0.109,1.842-0.047,2.953,0.182
		l7.89-0.043l-0.211-0.866l-0.227-0.591l0.454-0.045c-0.175-1.124-0.342-1.691-1.09-2.59c-1.72-0.95-2.902-1.125-4.862-1.409
		l-1-0.772c-1.523-4.52-2.762-8.678-3.135-12.45l1.181-2.272l-1.136-4.407c0.911,0.144,1.603,0.453,2.454,0.818l1.363-0.909
		l1.272-0.682l0.409,0.636l1.272,0.545l0.954,0.818l0.681-0.409l0.364,0.182l1.363-0.318c0.904-0.585,1.612-0.64,2.681-0.818
		l0.318-0.591l-0.409-1.545l-0.727-2.499c-0.171-1.143-0.373-2.127-0.727-3.226l0.727-0.909l0.182-1.772
		c-0.459-1.8-0.869-4.252-2.136-5.634V9.542c-0.125-0.328-0.367-0.479-0.727-0.454c-0.566,0.261-1.076,0.453-1.545,0.863
		l-8.542-5.134l-6.179-1.318l-4.816-2.726L50.493,0c-3.325,0.328-5.639,1.921-8.769,4.044c-1.11-0.118-2.145-0.229-3.226-0.5
		c-3.465-0.478-6.731-0.732-10.132-0.182c-4.371,1.577-8.948,2.974-12.041,6.543l-4.18,2.454
		c-3.409,5.242-5.648,10.322-7.361,16.448l-0.545,5.68c0.453,2.415,0.528,4.443,0.5,6.906c-1.015,2.228-1.838,4.587-3.771,6.179
		l-0.5,2.045L4.557,54.933L4.557,54.933z M64.686,21.142l1.681,4.317c1.391,0.728,2.478,0.977,3.907,1.454l0.591-0.318
		c0.594,0.752,1.057,1.109,1.863,1.636l0.467-0.174c-0.326-0.749-0.516-1.149-0.558-1.961h0.545l1.327,2.014
		c0.439,0.145,0.93,0.093,1.351-0.182l0.093-0.742c0.075-0.455-0.068-0.463,0.591-0.863l0.636,0.591l-0.273-1l-0.54-1.863
		c-0.219-1.174-0.576-2.242-0.89-3.394c0.46-0.777,0.977-1.267,1.185-2.14l-0.26-0.278l-0.954-1.089l-0.722-2.777
		c-0.958-1.17-2.117-0.066-2.953,0.727c-0.216-1.241-0.267-2.361,0.136-3.59l-0.636-1.045L69.275,9.01l-6.27-2.499l-3.09-0.182
		c-2.333-0.732-4.61-1.569-6.906-2.408c-1.973-0.058-3.521,0.537-5.417,1.096L47.239,4.33c-1.592,1.13-2.68,1.96-4.544,2.499
		c-5.199-0.726-8.702-1.046-13.858-0.227c-3.101,0.89-11.683,3.606-12.859,7.134c-0.091,0.273-1.09,1.954-1.09,1.954l-1.045,1.227
		l0.409-2.317C10.85,18.924,8.1,24.625,6.391,29.865l-0.545,4.862c0.394,2.483,0.591,4.667,0.591,7.179l-2.09,4.544l-1.999,1.954
		L2.211,49.63l3.862,4.498l1.318,0.045l-0.364-4.18c2.537-0.973,4.883-2.055,7.315-3.271l0.5-5.134
		c-1.744-3.488-2.827-5.689-2.999-9.587l0.318-2.226c0.236,0.802,0.175,1.296,0.091,2.136c0.937,2.638,2.359,5.096,3.044,7.77
		l1.272,2.408c2.101,1.882,3.716,3.878,5.452,6.088c1.176,0.851,1.401,1.656,2.363,2.544l1.318,2.772
		c2.676,0.792,5.648,0.451,8.441,0.495c0-0.902-0.84-1.011-1.353-1.494c-0.828-1.989-0.666-3.704-0.863-5.77
		c0.738-2.845,1.141-5.434,1.454-8.36c0.692-0.535,1.37-1.079,2.045-1.636l0.227-1.454c0.495-0.191,3.453-1.999,3.453-1.772
		c0,0.227-0.363,2.317-0.363,2.317c-0.352,4.121-0.586,7.413-0.046,11.495l0.863,0.863l1.636,2.59
		c1.337,0.501,1.339,1.512,1.802,2.815l0.974,0.334l6.311,0.027l0.136-0.409c-0.84-1.064-1.903-1.009-2.953-1.859l-1.09-4.271
		c0.057-2.35,0.487-4.585,0.863-6.906c0.923-1.978,2.455-2.3,4.498-3.09h-1.863c2.989-1.41,4.384-2.641,5.952-5.543L53.1,32.728
		c0.753-0.475,1.439-0.934,1.727-1.681c0.365-1.825,0.506-3.609,0.227-5.452l1.499,1.09l2.181,1l-1.181,3.953
		c-0.636,2.577-1.499,4.571-2.999,6.043l-1.045,0.409c-1.045,0.409,0.662,4.005,1.318,4.18l0.682,0.182
		c0.394,1.102,0.707,1.946,1.363,2.908l0.409-0.545c0.79,1.064,2.566,3.76,3.59,4.362c1.142,0.672,2.05,1.064,3.317,1.454
		l-0.273,1.318c0.182,0.682,0.154,0.601,0.818,0.838l1.454-0.252c2.561,0.388,5.162,0.335,7.743,0.178
		c-0.233-0.985-2.22-1.348-2.2-1.354c0.91-0.303,1.776-0.237,2.681,0.046c-0.35-0.525-0.694-0.821-1.181-1.227
		c-1.498-0.326-2.761-0.37-3.953-0.409c-0.776-0.545-1.479-0.634-1.997-1.203c-1.553-4.233-2.968-8.577-3.409-13.7l-0.863-6.043
		l1.272-0.182l0.273-0.364h-3.317c-2.054-0.564-3.702-1.451-5.589-2.817l-2.408-0.863l-0.863-1.817
		c2.27,0.42,3.347,1.52,5.134,2.999c0,0,1.999,1.272,2.454,1.272c0.454,0,1.817,0.136,1.817,0.136
		c0.96-0.096,1.921-0.146,2.862-0.364l1.136-0.954c-0.391-0.746-0.769-1.268-1.318-1.908C64.343,22.944,64.51,22.152,64.686,21.142
		L64.686,21.142z M67.543,13.835c-0.425-0.97-0.486-1.616-0.758-2.63c-0.013-0.392,0.387-0.674,1.014-0.458
		c0.696,0.453,1.225,1.209,1.679,1.903l0.764-0.844l-1.757-1.57c-1.05-0.579-1.576-0.554-2.657-0.268
		c-0.742,0.366-0.814,0.805-0.801,1.364c0.022,0.646,0.057,1.109,0.156,1.741L67.543,13.835L67.543,13.835z M72.675,19.292
		c0.8-0.558,0.846-0.585,1.877,0.159l0.354,0.882l-0.028,0.334l-0.482-0.343c-0.71,0-1.014,0.001-1.642-0.318L72.675,19.292
		L72.675,19.292z M30.339,40.373c1.117-3.036,2.279-4.095,4.612-5.423l4.34-2.219l4.003-5.115c0,0-4.869,1.396-5.271,1.463
		c-1.136,0.189-8.725,3.887-7.092,4.259l1.193,0.272C30.666,35.031,30.715,38.378,30.339,40.373L30.339,40.373z M37.95,15.155
		c1.022-2.059,1.754-2.633,3.544-3.993c1.023-0.572,2.046-1.145,3.069-1.718c2.061-0.492,3.806-0.886,5.706-1.857l0.699-1.884
		c0,0-3.109,0.742-3.639,0.863c-1.945,0.442-4.893,1.164-6.873,2.739c-1.445,1.49-1.894,3.248-2.543,4.951L37.95,15.155
		L37.95,15.155z"/>
</g>
</svg>
