<svg width="117" height="120" xmlns="http://www.w3.org/2000/svg">

 <g>
  <title>background</title>
  <rect fill="none" id="canvas_background" height="122" width="119" y="-1" x="-1"/>
 </g>
 <g>
  <title>Layer 1</title>
  <g stroke="null" id="svg_1">
   <path stroke="null" id="svg_2" d="m77.73352,92.98471l2.49479,8.20357l3.77503,-8.21414l6.92234,0.00754l-10.70321,23.09585l-6.96322,0l2.71522,-5.78792l-5.68298,-17.30793l7.44203,0.00302l0,0zm-51.4986,-0.00604l-3.77941,23.0717l3.77941,-23.0717l0,0zm-3.77649,23.09585l3.78378,-23.09736l12.39657,0.01056c3.17067,0.23991 5.11804,2.30551 5.24066,6.05498c-0.03212,0.68803 -0.17372,1.57221 -0.34451,2.23007c-0.99412,3.83397 -3.49475,6.20889 -6.98949,6.40202l-6.73257,0.00302l-1.37659,8.39369l-5.97785,0.00302l0,0zm40.61146,-14.73083l5.98953,-3.80832c-1.61453,-2.63896 -3.90641,-4.76341 -7.54129,-5.20551c-4.29471,-0.50999 -7.7515,0.02867 -11.0302,2.304c-2.94148,2.0656 -5.18373,6.28584 -5.72677,9.95534c-0.43648,4.26097 1.20579,7.55779 3.00717,9.21299c2.22327,2.04297 5.62167,3.25155 9.50764,2.98298c2.39844,-0.09807 6.3574,-1.63257 9.54413,-5.17382l-4.76623,-3.88678c-3.25096,3.13085 -6.22018,3.18818 -8.38067,1.99922c-1.0963,-0.69709 -2.28604,-2.59672 -2.1021,-5.01388c0.22043,-2.56352 2.28458,-5.13308 5.17059,-5.91466c2.21889,-0.45567 4.87717,-0.14183 6.32821,2.54843l0,0zm-53.77734,-8.3439l2.49479,8.20357l3.77503,-8.21414l6.92234,0.00754l-10.70321,23.09585l-6.96322,0l2.71522,-5.78792l-5.68152,-17.30793l7.44057,0.00302l0,0zm21.93048,6.11835l5.58955,0.00604c0.48903,0.11165 0.67442,0.4089 0.75033,0.96264c-0.01314,0.2731 -0.05401,0.50546 -0.13868,0.73481c-0.27736,0.427 -0.5591,0.74537 -1.04375,0.79667l-5.57933,0.00453l0.42188,-2.50468l0,0zm76.11802,2.13954l5.98953,-3.80832c-1.61453,-2.63896 -3.90641,-4.76341 -7.54129,-5.20551c-4.29471,-0.50999 -7.7515,0.02867 -11.0302,2.304c-2.94148,2.0656 -5.18373,6.28584 -5.72677,9.95534c-0.43648,4.26097 1.20579,7.55779 3.00717,9.21299c2.22327,2.04297 5.62167,3.25155 9.50764,2.98298c2.39844,-0.09807 6.3574,-1.63257 9.54413,-5.17382l-4.76623,-3.88678c-3.25096,3.13085 -6.22018,3.18818 -8.38067,1.99922c-1.0963,-0.69709 -2.28604,-2.59672 -2.1021,-5.01388c0.22043,-2.56352 2.28458,-5.13308 5.17059,-5.91466c2.21889,-0.45416 4.87717,-0.14183 6.32821,2.54843l0,0zm-98.83678,-17.19476l7.95879,-0.0679c-0.85544,-2.3372 -1.06857,-3.04032 -2.98528,-4.52502l-0.26568,-1.09693c1.10798,-0.74989 2.21451,-1.50281 3.31665,-2.26175c4.45529,-0.38325 6.88293,-1.64464 10.81123,-3.9079l0.66275,-1.23423l3.91371,3.49599l1.85686,1.43944l0.52991,1.30213c0.38539,2.38699 1.02478,4.54161 1.72402,6.85618l17.17885,0.1373l3.9794,-0.1373c-1.02478,-1.82721 -2.17509,-3.26664 -3.44949,-4.31831l-1.32695,-0.61712l-2.18823,-1.09693l-0.79559,-2.67367c0.39268,-1.62351 0.78975,-3.24703 1.19411,-4.86752l1.2598,-2.39906c1.79993,-4.72418 2.59551,-8.01195 2.91813,-13.09373l0.92843,-0.54771c-1.18389,5.19796 -1.72694,9.75768 -1.19411,15.08239l1.06127,2.12596l1.06127,3.15348l0.59706,-0.2052c0.95616,2.2859 1.91379,3.53673 3.51518,5.41674l0.59706,-0.41191l-0.39852,1.98865l1.45979,1.91925l3.05097,0.34251l8.09164,0.2052l6.03625,-0.34251l0.06569,-0.47981l-0.46421,-0.95962l0.92843,0c-0.9912,-2.49713 -1.4452,-2.95582 -3.58233,-4.52502c-1.8481,-0.24896 -3.14877,-0.45567 -4.84214,-1.23423l-1.12696,-6.71887c0.98682,-3.81737 1.81014,-6.32657 4.44361,-8.84332l2.98528,-1.37154c0.54888,3.15046 1.76343,6.26019 3.11666,9.11793l0.39852,-0.68501l2.85244,3.9758l0.7299,-0.27461c2.15757,2.46092 3.83488,4.14781 6.56615,5.89655l1.12696,0.54771c-0.11094,2.72799 0.48611,3.21232 2.98528,3.83849c1.64519,-0.16446 2.68894,-0.07092 4.31077,0.27461l11.51777,-0.06488l-0.30802,-1.30666l-0.33137,-0.89173l0.66275,-0.0679c-0.25546,-1.69594 -0.49925,-2.55145 -1.59117,-3.9079c-2.51084,-1.4334 -4.23632,-1.69745 -7.09752,-2.12596l-1.45979,-1.16483c-2.22327,-6.81997 -4.03195,-13.09373 -4.57645,-18.78508l1.72402,-3.42809l-1.65833,-6.64947c1.32987,0.21727 2.34005,0.68351 3.58233,1.23423l1.9897,-1.37154l1.85686,-1.02903l0.59706,0.95962l1.85686,0.82232l1.39264,1.23423l0.99412,-0.61712l0.53136,0.27461l1.9897,-0.47981c1.31965,-0.88267 2.35319,-0.96566 3.91371,-1.23423l0.46421,-0.89173l-0.59706,-2.33116l-1.06127,-3.7706c-0.24962,-1.72461 -0.5445,-3.20931 -1.06127,-4.86752l1.06127,-1.37154l0.26568,-2.67367c-0.67005,-2.71592 -1.26856,-6.4156 -3.11812,-8.50082l0,-3.70119c-0.18247,-0.4949 -0.53574,-0.72274 -1.06127,-0.68501c-0.82624,0.39381 -1.57074,0.68351 -2.25538,1.30213l-12.46956,-7.7464l-9.02006,-1.98865l-7.03037,-4.1131l-4.23924,-1.16633c-4.85381,0.4949 -8.23178,2.89849 -12.80093,6.10176c-1.62037,-0.17804 -3.13126,-0.34552 -4.70929,-0.75442c-5.05818,-0.72123 -9.82587,-1.10447 -14.79063,-0.27461c-6.38076,2.37944 -13.06223,4.4873 -17.57737,9.87235l-6.10194,3.7027c-4.97644,7.90935 -8.24491,15.57427 -10.74554,24.81744l-0.79559,8.57022c0.66129,3.64385 0.77077,6.70379 0.7299,10.42006c-1.48169,3.3617 -2.6831,6.92106 -5.50488,9.32314l-0.7299,3.08558l5.9691,8.021l0,0zm87.77593,-50.98528l2.45391,6.51367c2.03057,1.09844 3.61737,1.47414 5.70341,2.19386l0.86274,-0.47981c0.86712,1.13465 1.543,1.67331 2.7196,2.46847l0.68172,-0.26254c-0.47589,-1.13012 -0.75325,-1.73366 -0.81456,-2.95884l0.79559,0l1.93715,3.03881c0.64085,0.21878 1.35761,0.14032 1.97218,-0.27461l0.13576,-1.11956c0.10948,-0.68652 -0.09927,-0.69859 0.86274,-1.30213l0.92843,0.89173l-0.39852,-1.50884l-0.78829,-2.81097c-0.31969,-1.77138 -0.84084,-3.38282 -1.29922,-5.12101c0.67151,-1.17237 1.42622,-1.9117 1.72986,-3.22892l-0.37955,-0.41946l-1.39264,-1.64313l-1.05397,-4.19005c-1.39848,-1.76535 -3.09038,-0.09958 -4.31077,1.09693c-0.31532,-1.87247 -0.38976,-3.56238 0.19853,-5.41674l-0.92843,-1.57674l-2.91667,-2.19537l-9.15291,-3.7706l-4.51076,-0.27461c-3.4057,-1.10447 -6.72965,-2.36737 -10.08133,-3.63329c-2.88017,-0.08751 -5.13993,0.81025 -7.9077,1.65369l-0.51531,-1.03657c-2.32399,1.70499 -3.91225,2.95733 -6.6333,3.7706c-7.58947,-1.09542 -12.70312,-1.57825 -20.22982,-0.34251c-4.52682,1.34287 -17.05477,5.44088 -18.77149,10.76408c-0.13284,0.41191 -1.59117,2.94828 -1.59117,2.94828l-1.52548,1.85135l0.59706,-3.49599c-4.96622,6.52423 -8.98065,15.12614 -11.47544,23.03247l-0.79559,7.33599c0.57516,3.74645 0.86274,7.04177 0.86274,10.83198l-3.05097,6.85618l-2.91813,2.94828l-0.19999,1.84984l5.63772,6.78677l1.92401,0.0679l-0.53136,-6.30696c3.7035,-1.4681 7.12817,-3.10067 10.67839,-4.93542l0.7299,-7.7464c-2.54588,-5.26284 -4.12684,-8.5838 -4.37792,-14.46527l0.46421,-3.35868c0.34451,1.21009 0.25546,1.95546 0.13284,3.22289c1.36783,3.98033 3.44365,7.68906 4.44361,11.7237l1.85686,3.63329c3.06703,2.83964 5.42459,5.85129 7.95879,9.18583c1.71672,1.28402 2.04517,2.49864 3.44949,3.83849l1.92401,4.18251c3.90641,1.195 8.24491,0.68049 12.32212,0.74688c0,-1.36098 -1.22623,-1.52544 -1.9751,-2.25421c-1.20871,-3.00109 -0.97222,-5.58875 -1.2598,-8.70602c1.07733,-4.29266 1.66562,-8.19905 2.12254,-12.61392c1.01018,-0.80723 1.99992,-1.62804 2.98528,-2.46847l0.33137,-2.19386c0.7226,-0.28819 5.04067,-3.01618 5.04067,-2.67367c0,0.34251 -0.52991,3.49599 -0.52991,3.49599c-0.51385,6.21794 -0.85544,11.18505 -0.06715,17.34414l1.2598,1.30213l2.38822,3.9079c1.95174,0.75593 1.95466,2.28137 2.63055,4.24739l1.42184,0.50395l9.21276,0.04074l0.19853,-0.61712c-1.22623,-1.60541 -2.77799,-1.52242 -4.31077,-2.80494l-1.59117,-6.44426c0.08321,-3.54578 0.71092,-6.91804 1.2598,-10.42006c1.34739,-2.98449 3.58379,-3.47034 6.56615,-4.66232l-2.7196,0c4.36332,-2.12747 6.39974,-3.98485 8.68869,-8.36351l-3.97794,1.30213c1.09922,-0.7167 2.10064,-1.40926 2.52106,-2.53636c0.53282,-2.75364 0.73866,-5.44541 0.33137,-8.22621l2.18823,1.64464l3.18381,1.50884l-1.72402,5.96445c-0.92843,3.88829 -2.18823,6.89692 -4.37792,9.11793l-1.52548,0.61712c-1.52548,0.61712 0.96638,6.04291 1.92401,6.30696l0.99558,0.27461c0.57516,1.66274 1.03207,2.93621 1.9897,4.38771l0.59706,-0.82232c1.15324,1.60541 3.74583,5.67325 5.24066,6.58157c1.66708,1.01394 2.99258,1.60541 4.84214,2.19386l-0.39852,1.98865c0.26568,1.02903 0.22481,0.90681 1.19411,1.26441l2.12254,-0.38023c3.73853,0.58543 7.53545,0.50546 11.30318,0.26857c-0.34013,-1.48621 -3.24074,-2.03392 -3.21155,-2.04297c1.32841,-0.45718 2.59259,-0.3576 3.91371,0.06941c-0.51093,-0.79214 -1.0131,-1.23876 -1.72402,-1.85135c-2.18677,-0.49188 -4.03049,-0.55827 -5.77056,-0.61712c-1.1328,-0.82232 -2.15903,-0.95661 -2.91521,-1.81514c-2.26706,-6.38693 -4.33267,-12.94134 -4.97644,-20.67114l-1.2598,-9.11793l1.85686,-0.27461l0.39852,-0.54922l-4.84214,0c-2.99842,-0.85099 -5.40416,-2.18933 -8.15879,-4.25041l-3.51518,-1.30213l-1.2598,-2.74157c3.31373,0.63371 4.88593,2.29344 7.49458,4.52502c0,0 2.91813,1.91925 3.58233,1.91925c0.66275,0 2.65244,0.2052 2.65244,0.2052c1.4014,-0.14485 2.80426,-0.22029 4.17793,-0.54922l1.65833,-1.43944c-0.57078,-1.1256 -1.12258,-1.91321 -1.92401,-2.87887c-0.17226,-1.53449 0.07153,-2.7295 0.32845,-4.25343l0,0zm4.17063,-11.02511c-0.62041,-1.46358 -0.70946,-2.43829 -1.10652,-3.96825c-0.01898,-0.59147 0.56494,-1.01696 1.48023,-0.69105c1.01602,0.68351 1.78825,1.82419 2.45099,2.87133l1.11528,-1.27346l-2.56486,-2.36888c-1.53278,-0.87362 -2.30063,-0.8359 -3.87867,-0.40437c-1.08317,0.55224 -1.18827,1.21462 -1.16929,2.05806c0.03212,0.97471 0.08321,1.67331 0.22773,2.62689l3.44511,1.14974l0,0zm7.49166,8.23375c1.16783,-0.84193 1.23499,-0.88267 2.74003,0.23991l0.51677,1.3308l-0.04087,0.50395l-0.70362,-0.51753c-1.03645,0 -1.48023,0.00151 -2.39698,-0.47981l-0.11532,-1.07731l0,0zm-61.80182,31.8079c1.63059,-4.58084 3.32687,-6.17871 6.73257,-8.18245l6.3355,-3.34812l5.84355,-7.71773c0,0 -7.10773,2.10634 -7.69457,2.20744c-1.65833,0.28517 -12.7367,5.86487 -10.35286,6.42616l1.74153,0.41041c-2.12838,2.14406 -2.05685,7.19416 -2.60573,10.2043l0,0zm11.11049,-38.04998c1.49191,-3.10671 2.56048,-3.97278 5.17351,-6.02481c1.49337,-0.86306 2.98674,-1.72762 4.48011,-2.59219c3.00863,-0.74235 5.55597,-1.33683 8.32958,-2.80192l1.0204,-2.84266c0,0 -4.5385,1.11956 -5.31219,1.30213c-2.8393,0.66691 -7.14277,1.75629 -10.03316,4.13272c-2.1094,2.24817 -2.76485,4.90072 -3.71226,7.47028l0.05401,1.35645l0,0z" fill="#BF0400" clip-rule="evenodd" fill-rule="evenodd"/>
  </g>
 </g>
</svg>