<?xml version="1.0" encoding="utf-8"?>
<!-- Generator: Adobe Illustrator 17.0.1, SVG Export Plug-In . SVG Version: 6.00 Build 0)  -->
<!DOCTYPE svg PUBLIC "-//W3C//DTD SVG 1.1//EN" "http://www.w3.org/Graphics/SVG/1.1/DTD/svg11.dtd">
<svg version="1.1" id="Layer_1" xmlns="http://www.w3.org/2000/svg" xmlns:xlink="http://www.w3.org/1999/xlink" x="0px" y="0px"
	 width="153px" height="48px" viewBox="0 0 153 48" enable-background="new 0 0 153 48" xml:space="preserve">
<g>
	<title>background</title>
	<rect id="canvas_background" x="-1" y="-1" fill="none" width="582" height="402"/>
</g>
<polygon fill-rule="evenodd" clip-rule="evenodd" fill="#CE0000" points="104.019,10.76 107.365,21.407 112.43,10.746 
	121.716,10.757 107.359,40.732 98.017,40.731 101.66,33.219 94.037,10.756 104.019,10.76 "/>
<polygon fill-rule="evenodd" clip-rule="evenodd" fill="#D14A43" points="34.936,10.751 29.866,40.695 34.936,10.751 "/>
<path fill-rule="evenodd" clip-rule="evenodd" fill="#CE0000" d="M29.869,40.728l5.075-29.976l16.629,0.013
	c4.254,0.311,6.866,2.993,7.031,7.859c-0.043,0.892-0.234,2.041-0.462,2.894c-1.334,4.977-4.688,8.058-9.376,8.309l-9.032,0.004
	l-1.847,10.895L29.869,40.728L29.869,40.728z"/>
<path fill-rule="evenodd" clip-rule="evenodd" fill="#CE0000" d="M84.349,21.608l8.036-4.942c-2.166-3.425-5.241-6.182-10.116-6.756
	c-5.761-0.663-10.398,0.038-14.798,2.991c-3.945,2.681-6.953,8.159-7.683,12.922c-0.586,5.53,1.618,9.809,4.035,11.957
	c2.983,2.651,7.542,4.219,12.755,3.872c3.218-0.127,8.529-2.118,12.802-6.714l-6.393-5.045c-4.362,4.063-8.344,4.139-11.243,2.594
	c-1.47-0.905-3.067-3.37-2.819-6.507c0.297-3.328,3.065-6.663,6.935-7.676C78.837,17.71,82.402,18.116,84.349,21.608L84.349,21.608z
	"/>
<polygon fill-rule="evenodd" clip-rule="evenodd" fill="#CE0000" points="12.208,10.779 15.554,21.425 20.619,10.765 29.905,10.775 
	15.548,40.75 6.206,40.749 9.849,33.238 2.226,10.775 12.208,10.779 "/>
<path fill-rule="evenodd" clip-rule="evenodd" fill="#FFFFFF" d="M41.628,18.721l7.498,0.009c0.655,0.144,0.905,0.531,1.006,1.25
	c-0.017,0.355-0.073,0.655-0.186,0.953c-0.371,0.553-0.75,0.967-1.4,1.035l-7.484,0.007L41.628,18.721L41.628,18.721z"/>
<path fill-rule="evenodd" clip-rule="evenodd" fill="#CE0000" d="M143.738,21.498l8.036-4.942
	c-2.166-3.425-5.241-6.182-10.116-6.756c-5.761-0.663-10.398,0.038-14.798,2.991c-3.945,2.681-6.953,8.159-7.683,12.922
	c-0.586,5.53,1.618,9.809,4.035,11.957c2.983,2.651,7.542,4.219,12.755,3.872c3.218-0.127,8.529-2.118,12.802-6.714l-6.393-5.045
	c-4.362,4.063-8.344,4.138-11.243,2.594c-1.47-0.905-3.067-3.37-2.819-6.507c0.297-3.328,3.065-6.663,6.935-7.676
	C138.225,17.6,141.79,18.005,143.738,21.498L143.738,21.498z"/>
</svg>
