<!-- Generated by IcoMoon.io -->
<svg version="1.1" xmlns="http://www.w3.org/2000/svg" width="1024" height="1024" viewBox="0 0 1024 1024">
<title></title>
<g id="icomoon-ignore">
</g>
<path fill="#000" d="M551.956 796.461l455.685-455.693c10.548-10.54 16.359-24.609 16.359-39.611s-5.811-29.071-16.359-39.611l-33.55-33.559c-21.862-21.837-57.393-21.837-79.222 0l-382.657 382.657-383.081-383.081c-10.548-10.54-24.609-16.359-39.603-16.359-15.010 0-29.071 5.819-39.628 16.359l-33.542 33.559c-10.548 10.548-16.359 24.609-16.359 39.611s5.811 29.071 16.359 39.611l456.101 456.118c10.581 10.565 24.709 16.367 39.728 16.334 15.077 0.033 29.196-5.769 39.769-16.334z"></path>
</svg>
