<!-- Generated by IcoMoon.io -->
<svg version="1.1" xmlns="http://www.w3.org/2000/svg" width="1024" height="1024" viewBox="0 0 1024 1024">
<title>play-button</title>
<g id="icomoon-ignore">
</g>
<path fill="#f71735" d="M988.958 277.114l-260.878-271.078c-3.714-3.856-8.838-6.036-14.19-6.036h-388.82c-43.514 0-78.916 35.388-78.916 78.884v275.578h-157.574c-32.556 0-59.042 26.478-59.042 59.026v295.488c0 32.546 26.486 59.024 59.042 59.024h157.574v177.254c0 43.42 35.402 78.746 78.916 78.746h590.476c43.514 0 78.916-35.306 78.916-78.702v-654.528c0-5.092-1.974-9.986-5.504-13.656zM718.77 53.162l214.158 222.53h-214.158v-222.53zM88.58 728.616c-10.84 0-19.656-8.81-19.656-19.64v-295.488c0-10.83 8.818-19.642 19.656-19.642h531.762c10.838 0 19.658 8.812 19.658 19.642v295.488c0 10.83-8.82 19.64-19.658 19.64h-531.762zM955.076 945.298c0 21.68-17.734 39.318-39.532 39.318h-590.474c-21.798 0-39.532-17.656-39.532-39.36v-177.256h334.802c32.558 0 59.044-26.478 59.044-59.024v-295.488c0-32.548-26.486-59.026-59.044-59.026h-334.802v-275.578c0-21.782 17.734-39.5 39.532-39.5h354.314v256c0 10.876 8.818 19.692 19.692 19.692h256v630.222z"></path>
<path fill="#f71735" d="M569.29 573.638c-4.5-7.272-10.732-13.002-18.692-17.196-7.962-4.19-20.248-8.246-36.864-12.17s-27.076-7.694-31.384-11.308c-3.388-2.846-5.080-6.274-5.080-10.27 0-4.386 1.806-7.888 5.426-10.502 5.616-4.076 13.386-6.114 23.306-6.114 9.614 0 16.828 1.906 21.636 5.71 4.806 3.806 7.94 10.058 9.402 18.752l34.152-1.502c-0.536-15.538-6.168-27.962-16.9-37.266-10.734-9.31-26.712-13.962-47.94-13.962-13.002 0-24.098 1.958-33.29 5.884-9.192 3.924-16.232 9.634-21.116 17.132-4.884 7.502-7.33 15.562-7.33 24.178 0 13.38 5.194 24.728 15.582 34.038 7.384 6.612 20.228 12.19 38.538 16.728 14.228 3.54 23.346 6.002 27.342 7.384 5.85 2.078 9.944 4.52 12.288 7.326 2.348 2.812 3.52 6.212 3.52 10.216 0 6.228-2.788 11.672-8.364 16.324-5.578 4.652-13.864 6.98-24.866 6.98-10.384 0-18.634-2.614-24.748-7.848-6.114-5.228-10.17-13.42-12.174-24.576l-33.232 3.23c2.23 18.924 9.078 33.33 20.54 43.214 11.462 9.88 27.884 14.824 49.27 14.824 14.69 0 26.964-2.058 36.81-6.174 9.846-4.11 17.456-10.402 22.842-18.866 5.386-8.458 8.080-17.536 8.080-27.23-0.004-10.69-2.254-19.67-6.754-26.936z"></path>
<path fill="#f71735" d="M337.886 621.346v-139.268h-34.158v167.768h119.082v-28.5z"></path>
<path fill="#f71735" d="M227.46 562.846l52.618-82.152h-39.576l-33.23 54.346-33.926-54.346h-39.92l52.38 80.882-57.806 88.27h40.96l37.618-58.502 37.498 58.502h41.192z"></path>
</svg>
